<svg xmlns="http://www.w3.org/2000/svg" width="800" height="800" viewBox="0 0 800 800">
<g>
<path d="M 550.62,329.00 L 648.96,329.00 L 649.43,331.25 L 649.51,331.83 L 649.59,332.55 L 649.65,333.07 L 649.77,334.22 L 649.84,334.94 L 650.00,336.49 L 650.09,337.41 L 650.28,339.34 L 650.38,340.44 L 650.61,342.72 L 650.73,343.99 L 650.98,346.60 L 651.11,348.03 L 651.39,350.95 L 651.54,352.52 L 652.15,359.07 L 652.49,362.72 L 653.19,370.25 L 653.56,374.31 L 654.33,382.61 L 654.72,387.00 L 655.53,395.89 L 655.95,400.50 L 657.18,414.01 L 657.98,422.64 L 658.36,426.70 L 659.11,434.65 L 659.46,438.30 L 660.14,445.37 L 660.45,448.52 L 660.75,451.59 L 660.89,453.02 L 661.17,455.80 L 661.30,457.07 L 661.55,459.53 L 661.66,460.63 L 661.89,462.75 L 661.99,463.67 L 662.18,465.42 L 662.26,466.15 L 662.41,467.51 L 662.48,468.03 L 662.60,468.98 L 662.65,469.29 L 662.73,469.80 L 662.75,469.88 L 663.56,471.23 L 664.03,471.63 L 664.35,471.83 L 665.04,472.22 L 665.50,472.42 L 666.49,472.83 L 667.12,473.05 L 668.46,473.50 L 669.28,473.76 L 671.03,474.28 L 672.08,474.58 L 674.31,475.20 L 675.61,475.56 L 683.92,478.01 L 689.54,479.86 L 692.37,480.87 L 703.74,485.18 L 709.36,487.65 L 720.51,492.79 L 725.85,495.59 L 731.14,498.43 L 733.70,499.89 L 738.75,502.85 L 741.16,504.37 L 749.49,509.60 L 746.68,518.14 L 744.42,524.70 L 739.34,537.61 L 736.71,544.03 L 730.90,556.67 L 727.89,562.96 L 721.33,575.36 L 710.62,593.72 L 709.77,595.10 L 707.76,598.20 L 706.71,599.80 L 704.38,603.25 L 701.99,606.75 L 696.75,614.09 L 695.44,615.91 L 692.84,619.43 L 691.55,621.16 L 689.09,624.40 L 687.88,625.96 L 685.66,628.76 L 682.74,632.28 L 677.74,638.07 L 682.97,694.77 L 683.33,698.67 L 684.01,706.24 L 684.34,709.97 L 684.96,717.09 L 685.26,720.57 L 685.80,727.07 L 686.06,730.23 L 686.51,735.94 L 686.73,738.68 L 687.08,743.45 L 687.16,744.57 L 687.30,746.61 L 687.36,747.59 L 687.47,749.34 L 687.52,750.17 L 687.60,751.60 L 687.64,752.28 L 687.68,753.37 L 687.70,753.88 L 687.71,754.62 L 687.69,755.30 L 687.47,756.91 L 686.40,760.33 L 685.77,762.04 L 684.03,765.40 L 683.10,767.03 L 680.89,769.97 L 677.27,773.52 L 676.14,774.39 L 674.44,775.78 L 673.99,776.11 L 672.97,776.69 L 672.42,776.96 L 671.05,777.45 L 670.30,777.68 L 668.35,778.09 L 667.29,778.28 L 664.58,778.61 L 663.84,778.69 L 662.18,778.83 L 661.32,778.90 L 659.39,779.02 L 658.40,779.09 L 656.18,779.20 L 655.03,779.25 L 652.49,779.35 L 651.18,779.40 L 648.30,779.48 L 646.81,779.52 L 643.56,779.59 L 641.88,779.63 L 638.23,779.69 L 636.35,779.72 L 632.28,779.77 L 630.18,779.79 L 625.66,779.83 L 623.33,779.85 L 618.33,779.88 L 615.77,779.89 L 610.26,779.92 L 607.44,779.93 L 601.40,779.95 L 598.32,779.96 L 591.72,779.97 L 588.35,779.97 L 581.18,779.98 L 577.51,779.98 L 569.73,779.98 L 565.76,779.98 L 557.34,779.98 L 553.05,779.98 L 543.97,779.98 L 539.34,779.98 L 529.58,779.98 L 524.60,779.98 L 514.12,779.97 L 497.57,779.97 L 492.73,779.97 L 483.46,779.96 L 478.89,779.96 L 470.17,779.96 L 465.87,779.96 L 457.68,779.96 L 453.64,779.95 L 445.96,779.95 L 442.18,779.95 L 434.98,779.94 L 431.44,779.94 L 424.72,779.93 L 421.42,779.93 L 415.16,779.92 L 412.09,779.92 L 406.27,779.91 L 403.42,779.90 L 398.02,779.89 L 395.38,779.88 L 390.39,779.87 L 387.95,779.86 L 383.35,779.85 L 381.10,779.84 L 376.88,779.82 L 374.82,779.81 L 370.95,779.79 L 369.06,779.78 L 365.54,779.76 L 363.82,779.75 L 360.62,779.72 L 359.06,779.71 L 356.16,779.68 L 354.75,779.66 L 352.15,779.63 L 350.88,779.62 L 348.54,779.58 L 346.28,779.54 L 342.48,779.46 L 340.70,779.42 L 337.78,779.32 L 336.41,779.26 L 334.22,779.15 L 333.20,779.09 L 331.60,778.95 L 330.87,778.88 L 329.73,778.72 L 329.21,778.64 L 328.40,778.47 L 328.02,778.37 L 327.40,778.17 L 326.28,777.78 L 324.12,776.80 L 323.07,776.28 L 321.06,775.04 L 320.08,774.39 L 318.24,772.92 L 317.34,772.16 L 315.69,770.46 L 314.88,769.59 L 313.42,767.70 L 312.71,766.73 L 311.47,764.65 L 310.87,763.59 L 309.85,761.34 L 308.60,757.80 L 308.53,757.55 L 308.08,757.04 L 307.81,756.78 L 307.04,756.28 L 303.80,755.02 L 303.51,754.95 L 302.61,754.70 L 302.12,754.56 L 300.87,754.20 L 300.21,754.01 L 298.66,753.55 L 297.85,753.30 L 296.06,752.76 L 294.22,752.20 L 290.05,750.91 L 283.50,748.86 L 277.65,747.00 L 266.10,742.81 L 260.36,740.65 L 249.05,735.87 L 243.43,733.41 L 232.38,728.06 L 226.89,725.31 L 216.13,719.40 L 210.78,716.38 L 200.33,709.93 L 195.14,706.64 L 185.01,699.68 L 179.99,696.13 L 170.21,688.67 L 165.36,684.88 L 155.96,676.94 L 151.31,672.91 L 142.30,664.51 L 137.85,660.25 L 129.26,651.41 L 125.02,646.94 L 116.87,637.68 L 112.85,633.00 L 105.17,623.34 L 101.39,618.46 L 94.20,608.42 L 90.66,603.36 L 83.98,592.96 L 80.70,587.71 L 74.55,576.97 L 65.94,560.50 L 65.13,558.83 L 63.39,555.15 L 62.51,553.27 L 60.72,549.33 L 58.93,545.37 L 55.56,537.53 L 54.76,535.65 L 53.34,532.17 L 52.66,530.50 L 51.53,527.60 L 51.01,526.24 L 50.27,524.13 L 50.11,523.66 L 49.88,522.90 L 49.69,522.07 L 49.62,521.64 L 49.34,520.67 L 48.83,519.50 L 48.68,519.25 L 48.19,518.04 L 47.92,517.32 L 47.22,515.30 L 46.86,514.21 L 46.01,511.56 L 45.57,510.18 L 45.45,509.80 L 46.36,512.60 L 47.05,514.63 L 47.36,515.46 L 47.94,516.99 L 48.21,517.59 L 48.74,518.69 L 49.00,519.10 L 49.51,519.83 L 49.78,520.09 L 50.32,520.53 L 50.62,520.66 L 51.90,521.00 L 52.75,521.00 L 53.51,521.05 L 54.24,521.14 L 54.71,521.20 L 56.85,521.52 L 58.22,521.75 L 61.14,522.25 L 62.77,522.56 L 66.14,523.19 L 67.87,523.54 L 76.30,525.45 L 82.13,526.97 L 85.11,527.84 L 97.21,531.61 L 103.26,533.84 L 109.29,536.11 L 112.25,537.31 L 118.13,539.75 L 120.97,541.03 L 126.58,543.60 L 129.24,544.92 L 134.47,547.57 L 136.91,548.92 L 139.36,550.24 L 140.78,550.96 L 141.38,551.24 L 142.51,551.75 L 142.97,551.92 L 143.81,552.22 L 144.12,552.29 L 144.68,552.37 L 144.85,552.33 L 145.12,552.20 L 145.14,552.05 L 145.13,551.71 L 145.02,551.46 L 144.72,550.91 L 144.46,550.55 L 144.21,550.25 L 143.89,549.89 L 143.65,549.63 L 142.52,548.41 L 141.69,547.52 L 139.87,545.57 L 138.72,544.35 L 136.28,541.77 L 134.86,540.27 L 131.90,537.13 L 130.25,535.39 L 126.84,531.81 L 125.00,529.87 L 121.24,525.92 L 119.25,523.84 L 115.22,519.62 L 113.13,517.43 L 82.76,485.67 L 86.34,483.83 L 87.36,483.34 L 88.68,482.72 L 89.64,482.28 L 91.76,481.29 L 93.11,480.66 L 95.99,479.33 L 97.70,478.53 L 101.29,476.87 L 103.34,475.92 L 107.61,473.95 L 109.98,472.85 L 114.88,470.59 L 117.55,469.36 L 123.02,466.83 L 125.97,465.47 L 131.98,462.70 L 135.18,461.23 L 141.69,458.22 L 145.11,456.65 L 152.07,453.44 L 155.71,451.77 L 163.07,448.37 L 166.89,446.61 L 174.62,443.06 L 178.60,441.22 L 186.64,437.52 L 190.77,435.62 L 207.53,427.91 L 216.21,423.92 L 229.08,418.00 L 237.49,414.13 L 241.59,412.24 L 249.73,408.49 L 253.69,406.67 L 261.52,403.06 L 265.30,401.32 L 272.77,397.87 L 276.36,396.22 L 283.44,392.95 L 286.81,391.40 L 293.44,388.33 L 296.58,386.88 L 302.73,384.04 L 305.60,382.71 L 311.22,380.11 L 313.82,378.91 L 318.86,376.57 L 321.16,375.51 L 325.59,373.45 L 327.56,372.53 L 331.33,370.78 L 332.95,370.02 L 336.02,368.59 L 337.28,368.00 L 339.60,366.91 L 340.47,366.50 L 342.00,365.77 L 342.46,365.55 L 343.16,365.20 L 343.18,365.18 L 343.31,364.74 L 343.43,364.14 L 343.50,363.70 L 343.65,362.73 L 343.73,362.12 L 343.91,360.84 L 344.01,360.10 L 344.41,356.89 L 344.63,355.02 L 345.07,351.15 L 345.29,349.11 L 345.73,345.01 L 345.93,343.02 L 346.32,339.12 L 346.48,337.40 L 346.77,334.13 L 346.86,332.88 L 346.94,331.71 L 346.96,331.25 L 347.00,330.40 L 347.00,330.13 L 347.37,329.66 L 347.98,329.40 L 348.44,329.30 L 349.47,329.13 L 350.12,329.08 L 351.53,329.00 L 357.71,329.00 L 358.89,336.19 L 360.05,341.40 L 361.08,344.74 L 361.72,346.34 L 363.09,349.48 L 363.88,350.97 L 365.55,353.91 L 366.49,355.29 L 368.44,358.00 L 369.51,359.27 L 371.72,361.74 L 372.91,362.88 L 375.34,365.09 L 376.64,366.10 L 379.28,368.05 L 380.68,368.91 L 383.50,370.57 L 384.98,371.29 L 387.97,372.65 L 389.51,373.22 L 392.63,374.26 L 394.24,374.66 L 397.47,375.38 L 399.12,375.61 L 402.44,375.98 L 404.12,376.03 L 407.50,376.04 L 409.21,375.91 L 412.63,375.54 L 414.34,375.21 L 417.78,374.46 L 419.49,373.93 L 422.13,373.16 L 423.70,372.74 L 424.35,372.59 L 425.54,372.34 L 425.93,372.29 L 426.56,372.23 L 426.62,372.29 L 426.81,372.96 L 427.07,374.03 L 427.27,374.85 L 427.71,376.70 L 427.99,377.90 L 428.60,380.48 L 428.96,382.03 L 429.72,385.31 L 430.16,387.20 L 431.07,391.13 L 431.58,393.33 L 432.62,397.88 L 433.20,400.37 L 434.37,405.49 L 435.01,408.25 L 436.30,413.90 L 436.99,416.91 L 438.39,423.05 L 439.13,426.29 L 440.64,432.87 L 441.42,436.32 L 443.02,443.31 L 443.85,446.94 L 445.52,454.30 L 446.39,458.09 L 448.13,465.77 L 449.03,469.72 L 452.67,485.76 L 454.56,494.11 L 460.10,518.52 L 461.88,526.36 L 462.74,530.16 L 464.45,537.70 L 465.28,541.35 L 466.92,548.55 L 467.71,552.01 L 469.26,558.84 L 470.00,562.09 L 471.45,568.49 L 472.14,571.52 L 473.50,577.46 L 474.13,580.24 L 475.37,585.67 L 475.94,588.18 L 477.06,593.07 L 477.57,595.29 L 478.55,599.59 L 478.99,601.50 L 479.83,605.17 L 480.19,606.75 L 480.88,609.74 L 481.16,610.97 L 481.69,613.25 L 481.89,614.10 L 482.24,615.62 L 482.35,616.09 L 482.53,616.81 L 482.55,616.85 L 482.98,617.54 L 483.36,617.66 L 484.22,617.73 L 484.76,617.52 L 485.21,617.35 L 485.76,617.13 L 486.17,616.97 L 487.06,616.63 L 487.62,616.41 L 488.82,615.95 L 489.53,615.68 L 491.03,615.10 L 491.88,614.78 L 493.65,614.09 L 494.63,613.72 L 498.81,612.11 L 501.25,611.17 L 506.33,609.22 L 509.16,608.14 L 514.99,605.89 L 518.14,604.69 L 524.58,602.21 L 527.98,600.91 L 534.87,598.26 L 538.45,596.89 L 548.89,592.87 L 555.53,590.32 L 558.64,589.12 L 564.71,586.77 L 567.49,585.70 L 572.86,583.63 L 575.22,582.71 L 579.74,580.96 L 581.63,580.22 L 583.45,579.51 L 584.26,579.19 L 585.82,578.59 L 586.48,578.32 L 587.75,577.83 L 588.27,577.62 L 589.22,577.24 L 589.58,577.10 L 590.21,576.84 L 590.40,576.76 L 590.69,576.64 L 590.71,576.63 L 590.56,576.16 L 590.22,575.54 L 589.95,575.11 L 589.34,574.19 L 588.96,573.64 L 588.14,572.51 L 587.69,571.91 L 586.97,570.93 L 586.12,569.77 L 585.52,568.94 L 584.21,567.13 L 583.39,566.00 L 581.64,563.58 L 580.61,562.15 L 578.45,559.16 L 577.22,557.46 L 574.67,553.93 L 573.26,551.98 L 570.35,547.95 L 568.78,545.76 L 565.53,541.26 L 563.80,538.85 L 560.25,533.93 L 558.37,531.32 L 554.54,526.00 L 552.53,523.21 L 548.45,517.54 L 546.32,514.58 L 542.01,508.59 L 539.77,505.49 L 535.26,499.22 L 532.93,495.99 L 528.24,489.47 L 525.84,486.13 L 516.09,472.57 L 511.05,465.57 L 502.18,453.23 L 496.56,445.40 L 493.89,441.68 L 488.66,434.37 L 486.18,430.91 L 481.33,424.12 L 479.05,420.93 L 474.59,414.66 L 472.50,411.73 L 468.42,405.99 L 466.52,403.32 L 462.83,398.10 L 461.12,395.69 L 457.82,391.00 L 456.31,388.85 L 453.38,384.68 L 452.07,382.79 L 449.53,379.15 L 448.41,377.53 L 446.26,374.41 L 445.33,373.05 L 443.56,370.45 L 442.83,369.35 L 441.45,367.29 L 440.90,366.45 L 439.91,364.91 L 439.56,364.33 L 438.96,363.31 L 438.80,363.00 L 438.58,362.51 L 438.62,362.46 L 439.26,361.62 L 439.92,360.75 L 440.34,360.20 L 442.21,357.74 L 443.24,356.40 L 446.42,351.51 L 448.23,347.97 L 448.96,346.12 L 450.30,342.36 L 450.76,340.45 L 451.56,336.63 L 451.74,334.75 L 452.28,329.00 M 338.04,416.13 L 337.83,416.27 L 337.36,416.62 L 337.05,416.91 L 336.38,417.55 L 335.95,418.00 L 335.05,418.97 L 334.49,419.59 L 333.32,420.93 L 332.63,421.75 L 331.16,423.50 L 330.30,424.53 L 328.50,426.72 L 327.47,427.99 L 325.31,430.66 L 324.09,432.19 L 321.54,435.38 L 320.11,437.18 L 317.14,440.92 L 315.48,443.02 L 312.06,447.36 L 310.16,449.76 L 306.26,454.73 L 304.11,457.47 L 299.68,463.11 L 297.27,466.20 L 292.29,472.55 L 289.59,476.00 L 279.74,488.58 L 273.46,496.61 L 270.51,500.38 L 264.75,507.75 L 262.11,511.13 L 259.51,514.45 L 258.27,516.03 L 255.86,519.12 L 254.73,520.56 L 252.51,523.40 L 251.49,524.71 L 249.49,527.26 L 248.58,528.43 L 246.82,530.68 L 246.03,531.68 L 244.52,533.61 L 243.87,534.45 L 242.63,536.04 L 242.12,536.69 L 241.17,537.91 L 240.81,538.38 L 240.16,539.21 L 239.95,539.47 L 239.63,539.89 L 239.59,539.94 L 239.28,540.36 L 239.18,540.51 L 239.04,540.77 L 239.05,540.82 L 239.14,540.88 L 239.30,540.82 L 239.70,540.64 L 240.03,540.44 L 240.81,539.98 L 241.37,539.63 L 242.59,538.84 L 243.40,538.31 L 245.15,537.16 L 246.24,536.44 L 248.58,534.88 L 250.00,533.93 L 258.54,528.52 L 264.52,524.98 L 267.59,523.28 L 273.76,519.95 L 276.85,518.40 L 283.00,515.38 L 286.00,514.03 L 289.85,512.41 L 293.01,511.16 L 294.80,510.48 L 298.53,509.08 L 300.52,508.36 L 304.57,506.90 L 306.64,506.18 L 310.78,504.74 L 312.80,504.06 L 316.79,502.73 L 318.65,502.13 L 322.26,500.99 L 323.84,500.52 L 326.82,499.64 L 328.00,499.34 L 331.50,498.43 L 335.23,458.96 L 335.98,450.97 L 336.45,445.84 L 336.66,443.40 L 337.08,438.63 L 337.28,436.42 L 337.64,432.14 L 337.80,430.21 L 338.10,426.52 L 338.22,424.94 L 338.45,421.96 L 338.53,420.78 L 338.67,418.63 L 338.70,417.91 L 338.75,416.71 L 338.73,416.50 L 338.34,416.03 M 36.00,473.51 L 38.75,485.97 L 40.29,491.91 L 40.74,493.59 L 40.30,491.97 L 39.06,487.26 L 38.63,485.52 L 37.74,481.71 L 37.29,479.75 L 36.40,475.57 L 35.51,471.32 L 35.27,470.01 M 756.54,484.73 L 754.86,491.02 L 757.00,482.70 M 760.98,464.00 L 760.62,465.74 L 761.46,461.17 M 33.39,459.84 L 32.99,457.57 L 32.90,457.02 M 31.53,448.38 L 31.19,446.12 L 30.59,441.74 L 29.80,435.50 L 32.13,452.13 M 766.30,412.66 L 766.12,419.60 L 766.07,421.27 L 765.95,424.40 L 765.88,425.92 L 765.74,428.71 L 765.66,430.06 L 765.49,432.44 L 765.20,435.50 L 764.36,442.74 L 763.64,447.45 L 764.53,441.16 L 765.19,435.50 L 765.48,432.45 L 765.65,430.06 L 765.73,428.72 L 765.88,425.93 L 765.94,424.41 L 766.07,421.28 L 766.12,419.61 L 766.30,412.68 L 766.35,409.16 M 766.35,408.94 L 766.35,408.95 L 766.36,408.71 M 761.92,336.56 L 763.37,345.69 L 765.20,359.50 L 761.66,335.19 M 404.10,308.58 L 407.46,309.44 L 409.07,310.22 L 412.23,312.02 L 413.67,313.28 L 417.39,317.51 L 419.19,320.63 L 419.76,322.29 L 420.67,325.64 L 420.81,327.35 L 420.87,330.78 L 420.59,332.47 L 419.82,335.80 L 419.13,337.38 L 417.56,340.46 L 416.48,341.85 L 414.14,344.50 L 412.69,345.62 L 409.60,347.69 L 407.78,348.45 L 405.25,349.35 L 403.96,349.59 L 401.36,349.93 L 400.04,349.89 L 397.39,349.66 L 396.05,349.33 L 393.37,348.53 L 392.02,347.92 L 388.42,346.09 L 386.53,344.86 L 385.77,344.18 L 384.35,342.76 L 383.73,341.90 L 382.55,340.08 L 381.98,338.95 L 380.38,335.16 L 379.68,332.67 L 379.51,331.44 L 379.28,329.01 L 379.35,327.82 L 379.61,325.46 L 379.92,324.31 L 382.07,319.04 L 384.07,315.99 L 385.30,314.72 L 387.89,312.36 L 389.36,311.44 L 392.38,309.80 L 394.00,309.27 L 397.30,308.41 L 399.00,308.29 L 402.41,308.27 M 32.84,337.82 L 31.74,345.22 L 32.44,340.35 L 33.47,333.83 L 33.62,333.07 M 761.08,332.03 L 761.55,334.58 L 759.73,325.12 M 37.10,316.02 L 35.69,322.68 L 36.04,320.95 L 37.41,314.53 L 37.66,313.54 M 756.27,309.64 L 756.32,309.82 L 755.57,306.93 M 40.88,300.95 L 42.34,295.55 L 42.54,294.89 M 324.56,13.27 L 324.78,14.13 L 324.92,14.66 L 325.32,16.35 L 325.53,17.27 L 326.05,19.57 L 326.91,23.46 L 327.21,24.82 L 327.78,27.35 L 328.06,28.56 L 328.56,30.60 L 328.79,31.54 L 329.15,32.87 L 329.47,33.81 L 329.53,33.86 L 330.40,33.83 L 330.95,33.80 L 332.64,33.62 L 333.56,33.51 L 335.84,33.20 L 335.90,33.19 L 335.65,33.24 L 333.76,33.64 L 333.04,33.84 L 331.74,34.23 L 331.29,34.43 L 330.52,34.81 L 330.31,35.01 L 330.00,35.41 L 330.00,35.62 L 330.10,36.39 L 330.27,37.35 L 330.39,38.04 L 330.67,39.54 L 330.85,40.47 L 331.23,42.45 L 331.46,43.59 L 331.93,45.96 L 332.19,47.27 L 332.73,49.98 L 333.03,51.44 L 334.27,57.50 L 334.96,60.76 L 335.50,63.39 L 335.92,65.38 L 336.15,66.49 L 336.63,68.79 L 336.89,70.05 L 337.44,72.63 L 337.73,74.03 L 338.95,79.88 L 339.64,83.18 L 341.07,90.00 L 341.84,93.72 L 343.44,101.36 L 344.30,105.45 L 346.04,113.78 L 346.95,118.15 L 348.81,127.02 L 349.77,131.62 L 351.71,140.89 L 352.71,145.63 L 356.72,164.83 L 358.74,174.50 L 362.78,193.77 L 364.72,203.05 L 366.65,212.24 L 367.58,216.68 L 369.41,225.44 L 370.28,229.61 L 372.00,237.79 L 372.80,241.62 L 374.36,249.08 L 375.08,252.50 L 376.46,259.17 L 377.35,263.45 L 377.76,265.47 L 378.57,269.43 L 378.94,271.26 L 379.65,274.80 L 379.96,276.39 L 380.56,279.42 L 380.81,280.72 L 381.27,283.15 L 381.45,284.10 L 381.76,285.83 L 381.85,286.40 L 381.99,287.34 L 381.99,287.47 L 381.97,288.58 L 381.87,288.94 L 381.75,288.94 L 381.45,288.82 L 381.17,288.58 L 380.53,287.96 L 380.05,287.47 L 379.39,286.66 L 378.63,285.65 L 378.07,284.89 L 376.84,283.19 L 376.04,282.07 L 374.31,279.65 L 373.25,278.16 L 370.99,274.97 L 369.65,273.07 L 366.84,269.08 L 365.21,266.76 L 363.55,264.39 L 362.66,263.12 L 360.85,260.52 L 359.88,259.14 L 357.91,256.32 L 356.86,254.83 L 354.73,251.77 L 353.60,250.16 L 351.31,246.87 L 350.10,245.14 L 347.64,241.60 L 346.34,239.75 L 343.71,235.97 L 342.32,233.98 L 339.52,229.95 L 338.05,227.83 L 335.06,223.54 L 333.50,221.30 L 330.33,216.74 L 328.67,214.36 L 325.31,209.53 L 323.56,207.01 L 320.02,201.91 L 318.17,199.25 L 314.43,193.87 L 312.49,191.07 L 308.55,185.40 L 306.50,182.45 L 302.36,176.49 L 300.21,173.40 L 295.86,167.13 L 293.61,163.89 L 289.06,157.33 L 286.70,153.93 L 281.93,147.05 L 279.46,143.50 L 274.47,136.31 L 271.90,132.60 L 266.69,125.09 L 264.00,121.21 L 256.84,110.93 L 252.27,104.40 L 250.11,101.34 L 245.90,95.37 L 243.96,92.65 L 240.21,87.38 L 238.54,85.06 L 236.90,82.80 L 236.15,81.75 L 234.67,79.72 L 234.00,78.80 L 232.69,77.02 L 232.10,76.23 L 230.98,74.71 L 230.49,74.06 L 229.55,72.84 L 229.17,72.34 L 228.44,71.41 L 228.16,71.07 L 227.65,70.46 L 227.49,70.29 L 227.21,70.02 L 227.17,70.02 L 226.68,70.14 L 226.16,70.34 L 225.81,70.49 L 224.18,71.25 L 223.09,71.80 L 220.76,73.02 L 219.41,73.75 L 216.63,75.28 L 215.17,76.12 L 195.97,87.90 L 183.62,96.26 L 179.69,99.17 L 182.32,97.18 L 185.29,95.04 L 191.87,90.58 L 195.22,88.35 L 202.10,83.96 L 205.53,81.80 L 212.13,77.85 L 213.74,76.91 L 216.79,75.17 L 221.08,72.83 L 227.66,69.34 L 221.83,61.00 L 221.03,59.86 L 219.58,57.75 L 218.90,56.74 L 217.79,55.04 L 217.28,54.27 L 216.61,53.17 L 216.48,52.95 L 216.32,52.64 L 216.25,52.42 L 216.27,52.40 L 216.61,52.26 L 216.82,52.17 L 217.55,51.89 L 217.96,51.74 L 219.04,51.33 L 219.63,51.11 L 221.04,50.58 L 221.79,50.30 L 223.51,49.66 L 224.41,49.33 L 226.42,48.59 L 228.49,47.83 L 233.36,46.05 L 235.90,45.12 L 241.55,43.05 L 244.46,42.00 L 250.68,39.73 L 253.85,38.58 L 260.44,36.19 L 263.76,34.99 L 270.51,32.54 L 273.88,31.32 L 280.57,28.91 L 283.89,27.71 L 290.31,25.39 L 293.47,24.25 L 299.43,22.11 L 302.32,21.07 L 307.59,19.18 L 310.12,18.28 L 314.50,16.72 L 315.53,16.35 L 317.39,15.69 L 318.28,15.38 L 319.84,14.83 L 320.58,14.57 L 321.82,14.14 L 322.39,13.94 L 323.28,13.63 L 323.68,13.50 L 324.20,13.33 L 324.53,13.24 M 623.69,48.44 L 624.19,49.06 L 624.46,49.40 L 625.18,50.31 L 625.56,50.80 L 626.48,51.98 L 626.97,52.61 L 628.08,54.03 L 628.66,54.78 L 629.94,56.44 L 630.60,57.29 L 632.04,59.16 L 633.52,61.07 L 636.88,65.44 L 638.62,67.70 L 642.41,72.63 L 644.35,75.15 L 648.44,80.49 L 652.59,85.90 L 661.26,97.24 L 663.42,100.07 L 667.68,105.64 L 669.78,108.41 L 673.85,113.74 L 675.84,116.35 L 679.59,121.27 L 681.41,123.67 L 684.71,128.01 L 686.29,130.10 L 689.02,133.71 L 689.66,134.56 L 690.82,136.09 L 691.37,136.83 L 692.34,138.12 L 692.80,138.73 L 693.57,139.76 L 693.93,140.24 L 694.49,140.99 L 694.73,141.33 L 695.06,141.78 L 695.26,142.09 L 695.28,142.16 L 695.13,142.40 L 695.02,142.53 L 694.64,142.88 L 694.22,143.26 L 692.79,144.28 L 691.99,144.83 L 689.98,146.09 L 686.50,148.12 L 685.26,148.81 L 682.95,150.12 L 681.83,150.75 L 679.93,151.87 L 679.04,152.39 L 677.76,153.17 L 676.76,153.85 L 676.71,153.90 L 676.76,154.17 L 676.80,154.33 L 677.03,154.80 L 677.30,155.32 L 678.30,156.85 L 678.87,157.68 L 680.37,159.70 L 683.04,163.04 L 685.87,166.46 L 691.33,173.44 L 694.03,176.96 L 699.23,184.14 L 701.79,187.75 L 706.72,195.12 L 709.15,198.83 L 713.79,206.38 L 714.73,207.94 L 711.16,202.22 L 702.58,188.95 L 697.95,182.50 L 690.27,172.19 L 687.76,168.96 L 686.56,167.46 L 684.21,164.54 L 683.12,163.24 L 681.02,160.74 L 680.09,159.69 L 678.34,157.72 L 677.62,156.98 L 676.30,155.66 L 675.83,155.29 L 675.04,154.73 L 674.88,154.77 L 674.37,155.00 L 673.71,155.33 L 673.23,155.58 L 672.16,156.13 L 671.49,156.48 L 670.06,157.24 L 669.21,157.69 L 667.42,158.64 L 666.41,159.18 L 664.31,160.30 L 663.15,160.92 L 660.77,162.20 L 659.47,162.89 L 656.82,164.32 L 655.41,165.08 L 649.53,168.25 L 646.31,169.99 L 639.70,173.57 L 636.20,175.47 L 629.08,179.33 L 625.41,181.32 L 618.02,185.34 L 614.29,187.37 L 606.84,191.43 L 603.17,193.43 L 595.90,197.40 L 592.40,199.31 L 585.52,203.08 L 582.30,204.84 L 576.05,208.27 L 573.23,209.82 L 570.47,211.34 L 569.18,212.05 L 566.67,213.44 L 565.51,214.08 L 563.28,215.32 L 562.27,215.87 L 560.34,216.95 L 559.50,217.42 L 557.90,218.32 L 557.23,218.69 L 556.00,219.39 L 555.52,219.66 L 554.67,220.16 L 554.40,220.32 L 553.97,220.58 L 553.92,220.63 L 552.59,221.60 L 551.80,222.00 L 551.60,222.00 L 551.06,222.23 L 550.31,222.60 L 549.75,222.89 L 548.53,223.52 L 547.76,223.91 L 546.14,224.76 L 545.21,225.26 L 543.25,226.29 L 542.18,226.86 L 539.96,228.04 L 538.78,228.67 L 533.87,231.29 L 531.29,232.68 L 526.08,235.49 L 523.55,236.86 L 518.58,239.56 L 516.37,240.76 L 514.23,241.94 L 513.26,242.47 L 511.39,243.50 L 510.59,243.95 L 509.07,244.80 L 508.47,245.14 L 507.37,245.77 L 507.00,245.99 L 506.43,246.30 L 505.79,246.66 L 505.35,246.90 L 504.39,247.43 L 503.80,247.75 L 502.55,248.43 L 501.83,248.82 L 498.70,250.52 L 496.83,251.52 L 492.91,253.64 L 490.75,254.80 L 486.31,257.19 L 483.99,258.44 L 479.30,260.96 L 476.95,262.22 L 472.27,264.73 L 470.03,265.93 L 465.62,268.29 L 463.61,269.36 L 461.53,270.48 L 459.95,271.33 L 459.09,271.79 L 455.47,273.76 L 453.52,274.82 L 449.56,276.99 L 447.61,278.06 L 443.77,280.17 L 442.05,281.12 L 429.61,288.02 L 425.30,286.37 L 422.26,285.00 L 421.56,284.59 L 421.34,284.42 L 421.00,284.10 L 421.00,284.00 L 421.23,283.66 L 421.61,283.17 L 421.91,282.80 L 422.58,281.97 L 423.02,281.44 L 423.96,280.31 L 424.53,279.62 L 425.73,278.19 L 426.42,277.37 L 427.86,275.65 L 428.67,274.70 L 430.34,272.72 L 431.25,271.64 L 433.13,269.42 L 434.15,268.23 L 436.22,265.79 L 437.33,264.49 L 439.58,261.84 L 440.77,260.45 L 445.70,254.68 L 448.37,251.55 L 453.85,245.16 L 456.76,241.78 L 462.67,234.90 L 465.75,231.32 L 470.52,225.78 L 473.85,221.92 L 475.58,219.91 L 482.66,211.69 L 486.38,207.37 L 493.92,198.61 L 497.79,194.12 L 505.56,185.09 L 509.46,180.57 L 517.23,171.54 L 521.04,167.13 L 528.57,158.37 L 532.17,154.20 L 539.24,145.99 L 542.51,142.19 L 545.74,138.44 L 547.27,136.66 L 550.29,133.16 L 551.70,131.52 L 592.90,83.67 L 586.20,79.73 L 572.29,72.03 L 573.50,72.66 L 575.15,73.58 L 578.46,75.41 L 580.08,76.31 L 583.08,77.98 L 584.51,78.77 L 586.86,80.07 L 587.39,80.37 L 588.27,80.85 L 589.27,81.41 L 589.92,81.77 L 590.99,82.28 L 591.50,82.50 L 592.30,82.73 L 592.67,82.81 L 593.22,82.77 L 593.77,82.40 L 593.86,82.27 L 594.33,81.66 L 594.62,81.31 L 595.44,80.31 L 595.90,79.77 L 597.02,78.44 L 597.62,77.74 L 598.99,76.13 L 600.41,74.47 L 603.75,70.59 L 605.47,68.60 L 609.10,64.43 L 610.91,62.35 L 614.39,58.38 L 615.23,57.42 L 616.82,55.62 L 617.59,54.75 L 618.99,53.17 L 619.66,52.42 L 620.82,51.12 L 621.37,50.51 L 622.25,49.55 L 622.64,49.12 L 623.17,48.56 L 623.53,48.24 M 748.84,283.47 L 749.01,284.03 L 748.49,282.43 M 47.42,279.43 L 48.24,276.91 L 48.60,275.95 M 54.63,259.89 L 55.10,258.66 L 55.53,257.67 M 739.64,258.12 L 740.31,259.84 L 739.21,257.09 M 728.71,233.66 L 732.52,241.73 L 732.79,242.31 L 728.15,232.56 M 62.73,241.19 L 62.89,240.83 L 63.18,240.25 M 716.08,210.18 L 720.46,217.91 L 722.61,221.80 L 724.14,224.75 L 723.02,222.67 L 715.60,209.39 M 101.96,175.82 L 102.99,174.40 L 103.22,174.12 M 113.81,160.89 L 108.92,166.92 L 111.05,164.23 L 115.15,159.20 L 116.70,157.44 M 128.31,144.56 L 121.21,152.33 L 123.75,149.45 L 128.12,144.62 L 131.50,141.17 M 143.80,129.05 L 134.89,137.71 L 137.25,135.31 L 141.88,130.71 L 147.82,125.26 M 165.91,109.68 L 160.26,114.41 L 149.77,123.47 L 151.52,121.86 L 156.41,117.50 L 166.55,109.14 L 172.86,104.36 M 560.91,66.07 L 563.36,67.35 L 558.82,65.06 M 547.62,59.86 L 552.15,61.86 L 555.17,63.31 L 550.93,61.38 L 541.30,57.16 M 524.32,50.50 L 528.76,52.19 L 523.61,50.26 M 509.84,45.58 L 511.69,46.20 L 506.89,44.68 M 490.27,39.94 L 495.18,41.22 L 496.47,41.60 L 495.18,41.25 L 486.33,38.95 M 465.82,34.40 L 475.57,36.41 L 480.46,37.48 L 481.20,37.66 L 475.76,36.47 L 464.62,34.19 M 360.10,29.94 L 357.59,30.17 L 356.50,30.30 L 349.54,31.15 L 347.67,31.40 L 348.91,31.22 L 353.26,30.67 L 357.59,30.14 L 360.21,29.93 M 396.56,28.57 L 388.77,28.65 L 384.97,28.74 L 377.47,28.94 L 373.98,29.09 L 370.55,29.24 L 368.92,29.33 L 365.74,29.51 L 364.27,29.61 L 362.29,29.75 L 366.28,29.43 L 368.51,29.27 L 373.16,29.03 L 375.53,28.92 L 380.58,28.77 L 383.17,28.70 L 388.79,28.61 L 398.00,28.56 L 398.89,28.56 M 30.55,353.41 L 29.86,360.01 L 30.55,353.41 Z" fill="rgba(76,181,171,1)"/>
<path d="M 252.27,104.40 L 256.84,110.93 L 264.00,121.21 L 266.69,125.09 L 271.90,132.60 L 274.47,136.31 L 279.46,143.50 L 281.93,147.05 L 286.70,153.93 L 289.06,157.33 L 293.61,163.89 L 295.86,167.13 L 300.21,173.40 L 302.36,176.49 L 306.50,182.45 L 308.55,185.40 L 312.49,191.07 L 314.43,193.87 L 318.17,199.25 L 320.02,201.91 L 323.56,207.01 L 325.31,209.53 L 328.67,214.36 L 330.33,216.74 L 333.50,221.30 L 335.06,223.54 L 338.05,227.83 L 339.52,229.95 L 342.32,233.98 L 343.71,235.97 L 346.34,239.75 L 347.64,241.60 L 350.10,245.14 L 351.31,246.87 L 353.60,250.16 L 354.73,251.77 L 356.86,254.83 L 357.91,256.32 L 359.88,259.14 L 360.85,260.52 L 362.66,263.12 L 363.55,264.39 L 365.21,266.76 L 366.84,269.08 L 369.65,273.07 L 370.99,274.97 L 373.25,278.16 L 374.31,279.65 L 376.04,282.07 L 376.84,283.19 L 378.07,284.89 L 378.63,285.65 L 379.39,286.66 L 380.05,287.47 L 380.53,287.96 L 380.89,288.31 L 380.88,288.30 L 380.19,288.00 L 379.69,287.72 L 377.93,286.56 L 376.97,285.77 L 376.77,285.50 L 376.21,285.00 L 376.01,285.17 L 376.00,285.50 L 375.88,285.68 L 375.69,285.59 L 375.56,285.46 L 374.95,284.69 L 374.56,284.07 L 373.76,282.72 L 373.38,281.96 L 372.65,280.44 L 372.40,279.75 L 371.52,278.51 L 370.70,278.00 L 370.29,278.00 L 369.50,278.52 L 368.48,279.35 L 367.75,279.99 L 366.16,281.39 L 365.19,282.27 L 363.12,284.15 L 361.95,285.24 L 359.50,287.51 L 358.16,288.76 L 355.43,291.33 L 353.98,292.70 L 348.01,298.37 L 344.94,301.32 L 338.82,307.23 L 335.94,310.03 L 333.12,312.80 L 331.80,314.10 L 329.23,316.64 L 328.07,317.79 L 325.85,320.02 L 324.90,320.99 L 323.12,322.81 L 322.43,323.54 L 321.18,324.88 L 320.79,325.33 L 320.16,326.09 L 320.12,326.22 L 320.28,326.48 L 320.66,326.62 L 320.99,326.68 L 321.74,326.78 L 322.26,326.82 L 323.39,326.89 L 324.11,326.92 L 325.65,326.95 L 326.57,326.96 L 328.52,326.96 L 329.65,326.95 L 332.02,326.92 L 333.38,326.89 L 336.19,326.82 L 337.77,326.78 L 341.42,326.67 L 343.60,326.60 L 344.58,326.57 L 346.46,326.52 L 347.29,326.51 L 348.89,326.49 L 349.60,326.50 L 352.16,326.57 L 353.13,326.71 L 354.85,327.04 L 355.47,327.33 L 356.56,328.02 L 356.93,328.53 L 357.20,329.00 L 351.53,329.00 L 350.12,329.08 L 349.47,329.13 L 348.44,329.30 L 347.98,329.40 L 347.37,329.66 L 347.00,330.13 L 347.00,330.40 L 346.96,331.25 L 346.94,331.71 L 346.86,332.88 L 346.77,334.13 L 346.48,337.40 L 346.32,339.12 L 345.93,343.02 L 345.73,345.01 L 345.32,348.84 L 345.35,348.54 L 345.57,346.27 L 346.14,339.84 L 346.44,336.04 L 346.55,334.51 L 346.64,333.05 L 346.68,332.43 L 346.73,331.28 L 346.75,330.84 L 346.77,330.04 L 346.76,329.80 L 346.74,329.40 L 346.71,329.37 L 346.38,329.35 L 346.02,329.47 L 345.79,329.60 L 344.77,330.24 L 344.19,330.72 L 343.05,332.27 L 342.70,333.04 L 342.53,333.52 L 342.18,334.57 L 342.01,335.21 L 341.65,336.59 L 341.47,337.42 L 341.09,339.18 L 340.89,340.23 L 340.47,342.44 L 340.25,343.73 L 339.78,346.44 L 339.51,348.00 L 338.54,353.78 L 337.99,356.97 L 337.76,358.26 L 337.33,360.67 L 337.14,361.61 L 336.79,363.34 L 336.64,363.98 L 336.34,365.14 L 336.21,365.55 L 335.96,366.25 L 335.83,366.46 L 335.34,367.00 L 335.04,367.00 L 334.29,367.44 L 333.80,368.09 L 333.64,368.50 L 333.39,369.29 L 333.38,369.56 L 333.41,369.81 L 332.95,370.02 L 331.33,370.78 L 327.56,372.53 L 325.59,373.45 L 321.16,375.51 L 318.86,376.57 L 313.82,378.91 L 311.22,380.11 L 305.60,382.71 L 302.73,384.04 L 296.58,386.88 L 293.44,388.33 L 286.81,391.40 L 283.44,392.95 L 276.36,396.22 L 272.77,397.87 L 265.30,401.32 L 261.52,403.06 L 253.69,406.67 L 249.73,408.49 L 241.59,412.24 L 237.49,414.13 L 229.08,418.00 L 216.21,423.92 L 207.53,427.91 L 190.77,435.62 L 186.64,437.52 L 178.60,441.22 L 174.62,443.06 L 166.89,446.61 L 163.07,448.37 L 155.71,451.77 L 152.07,453.44 L 145.11,456.65 L 141.69,458.22 L 135.18,461.23 L 131.98,462.70 L 125.97,465.47 L 123.02,466.83 L 117.55,469.36 L 114.88,470.59 L 109.98,472.85 L 107.61,473.95 L 103.34,475.92 L 101.29,476.87 L 97.70,478.53 L 95.99,479.33 L 93.11,480.66 L 91.76,481.29 L 89.64,482.28 L 88.68,482.72 L 87.36,483.34 L 86.34,483.83 L 82.76,485.67 L 113.13,517.43 L 115.22,519.62 L 119.25,523.84 L 121.24,525.92 L 125.00,529.87 L 126.84,531.81 L 130.25,535.39 L 131.90,537.13 L 134.86,540.27 L 136.28,541.77 L 138.72,544.35 L 139.87,545.57 L 141.69,547.52 L 142.52,548.41 L 143.65,549.63 L 143.89,549.89 L 144.21,550.25 L 144.46,550.55 L 144.72,550.91 L 145.02,551.46 L 145.13,551.71 L 145.14,552.05 L 145.12,552.20 L 144.85,552.33 L 144.68,552.37 L 144.12,552.29 L 143.81,552.22 L 142.97,551.92 L 142.51,551.75 L 141.38,551.24 L 140.78,550.96 L 139.36,550.24 L 136.91,548.92 L 134.47,547.57 L 129.24,544.92 L 126.58,543.60 L 120.97,541.03 L 118.13,539.75 L 112.25,537.31 L 109.29,536.11 L 103.26,533.84 L 97.21,531.61 L 85.11,527.84 L 82.13,526.97 L 76.30,525.45 L 67.87,523.54 L 66.14,523.19 L 62.77,522.56 L 61.14,522.25 L 58.22,521.75 L 56.85,521.52 L 54.71,521.20 L 54.24,521.14 L 53.51,521.05 L 52.75,521.00 L 51.90,521.00 L 50.62,520.66 L 50.32,520.53 L 49.78,520.09 L 49.51,519.83 L 49.00,519.10 L 48.74,518.69 L 48.21,517.59 L 47.94,516.99 L 47.36,515.46 L 47.05,514.63 L 46.36,512.60 L 45.17,508.91 L 44.31,506.23 L 42.66,500.63 L 41.85,497.79 L 40.29,491.91 L 38.75,485.97 L 36.00,473.51 L 34.69,467.22 L 32.45,454.46 L 29.80,435.50 L 29.70,434.61 L 29.51,432.47 L 29.42,431.35 L 29.26,428.81 L 29.19,427.49 L 29.05,424.60 L 28.99,423.11 L 28.88,419.93 L 28.78,416.68 L 28.66,409.56 L 28.64,408.08 L 28.88,408.74 L 29.20,409.06 L 29.84,410.01 L 30.27,410.93 L 30.47,411.49 L 31.21,413.94 L 31.41,415.22 L 32.10,419.88 L 39.05,412.74 L 41.75,409.90 L 43.33,408.19 L 43.96,407.47 L 45.10,406.16 L 45.45,405.70 L 46.00,404.95 L 46.00,404.85 L 46.23,404.43 L 46.60,404.04 L 46.87,403.81 L 48.15,402.84 L 48.97,402.36 L 51.36,400.29 L 52.65,398.56 L 52.92,397.79 L 54.14,395.61 L 55.21,394.49 L 55.70,394.31 L 56.90,393.53 L 58.09,392.56 L 58.82,391.91 L 60.37,390.50 L 61.21,389.68 L 62.93,387.98 L 63.80,387.07 L 66.32,384.44 L 67.88,382.82 L 68.54,382.14 L 69.77,380.86 L 70.21,380.41 L 70.96,379.64 L 71.10,379.50 L 71.76,378.84 L 72.42,378.17 L 72.82,377.77 L 74.58,375.96 L 75.52,375.00 L 78.30,372.14 L 79.11,371.31 L 79.44,370.97 L 80.03,370.37 L 80.21,370.19 L 81.72,368.71 L 83.16,367.34 L 84.03,366.52 L 85.88,364.79 L 86.89,363.85 L 88.96,361.93 L 90.02,360.95 L 92.14,359.01 L 93.16,358.08 L 95.15,356.26 L 96.04,355.46 L 97.72,353.94 L 98.39,353.35 L 99.59,352.30 L 99.95,352.00 L 102.09,349.86 L 102.58,349.19 L 102.74,348.91 L 102.98,348.39 L 102.98,348.22 L 103.43,347.15 L 104.08,346.52 L 104.49,346.36 L 105.40,345.72 L 105.62,345.19 L 105.48,344.97 L 105.77,344.18 L 106.58,343.63 L 107.19,343.44 L 109.05,342.62 L 110.14,341.91 L 110.58,341.50 L 111.37,340.67 L 111.62,340.25 L 112.00,339.40 L 112.00,339.00 L 112.43,337.71 L 113.06,336.82 L 113.49,336.41 L 114.38,335.66 L 114.85,335.40 L 115.79,335.00 L 116.21,335.00 L 117.64,334.42 L 118.72,333.57 L 119.21,333.02 L 120.16,331.86 L 120.48,331.27 L 121.00,330.13 L 121.00,329.68 L 121.27,328.77 L 121.69,328.03 L 121.99,327.62 L 123.40,325.90 L 124.27,325.08 L 126.04,323.53 L 126.83,323.03 L 127.59,322.60 L 127.90,322.49 L 128.47,322.35 L 128.66,322.42 L 129.61,322.52 L 130.00,322.29 L 130.00,322.04 L 130.37,321.29 L 130.96,320.44 L 131.40,319.89 L 132.34,318.72 L 132.91,318.06 L 134.10,316.70 L 134.75,315.99 L 138.90,311.50 L 141.26,308.94 L 142.26,307.87 L 144.15,305.86 L 144.92,305.04 L 146.36,303.53 L 146.94,302.94 L 147.99,301.88 L 148.38,301.49 L 149.09,300.83 L 149.33,300.63 L 149.74,300.31 L 149.84,300.27 L 150.00,300.26 L 150.00,300.35 L 150.35,300.57 L 150.92,300.17 L 151.37,299.69 L 152.40,298.57 L 153.07,297.74 L 154.53,295.90 L 155.43,294.72 L 156.57,293.29 L 157.27,292.48 L 157.56,292.18 L 158.12,291.64 L 158.31,291.50 L 158.64,291.31 L 158.70,291.37 L 159.23,291.13 L 159.91,290.60 L 160.38,290.19 L 161.37,289.26 L 161.96,288.68 L 163.17,287.45 L 163.81,286.76 L 165.86,284.57 L 167.03,283.32 L 167.54,282.78 L 169.38,280.86 L 170.08,280.15 L 171.37,278.88 L 171.93,278.37 L 173.02,277.40 L 173.60,276.92 L 174.57,276.02 L 175.37,275.21 L 175.80,274.74 L 177.63,272.73 L 178.44,271.74 L 181.04,269.05 L 181.88,268.37 L 182.25,268.13 L 182.93,267.73 L 183.18,267.66 L 184.67,266.79 L 185.50,265.85 L 185.70,265.34 L 186.17,264.61 L 186.78,263.86 L 187.21,263.38 L 188.15,262.33 L 188.73,261.71 L 189.95,260.42 L 190.65,259.69 L 193.67,256.60 L 195.41,254.87 L 199.02,251.31 L 200.91,249.48 L 204.71,245.84 L 206.54,244.12 L 210.13,240.77 L 211.71,239.34 L 213.25,237.96 L 213.93,237.35 L 215.26,236.20 L 215.82,235.73 L 216.88,234.86 L 217.29,234.54 L 218.03,234.00 L 218.27,233.87 L 219.49,232.78 L 220.00,231.90 L 220.00,231.52 L 220.22,231.03 L 220.56,230.51 L 220.83,230.17 L 221.43,229.42 L 221.81,228.98 L 222.62,228.04 L 223.10,227.51 L 225.19,225.24 L 226.45,223.93 L 229.10,221.24 L 230.55,219.82 L 234.87,215.59 L 237.54,212.97 L 238.78,211.75 L 241.20,209.37 L 242.32,208.27 L 244.49,206.12 L 245.48,205.14 L 247.42,203.21 L 248.30,202.33 L 250.01,200.62 L 250.78,199.84 L 252.28,198.32 L 252.95,197.64 L 254.24,196.31 L 254.82,195.71 L 256.93,193.50 L 257.72,192.63 L 259.15,191.03 L 259.63,190.44 L 260.46,189.37 L 260.68,189.01 L 261.00,188.38 L 261.00,188.20 L 261.22,187.69 L 261.56,187.35 L 261.81,187.19 L 262.99,186.56 L 263.75,186.38 L 265.96,185.68 L 267.16,185.11 L 267.60,184.80 L 268.34,184.18 L 268.50,183.88 L 268.67,183.28 L 268.51,183.01 L 268.46,182.38 L 268.67,181.84 L 268.87,181.52 L 269.90,180.19 L 270.63,179.52 L 272.17,178.22 L 272.95,177.76 L 273.71,177.34 L 274.06,177.20 L 274.73,177.00 L 275.01,177.00 L 276.32,176.71 L 276.67,176.28 L 276.50,176.00 L 276.52,175.29 L 277.00,175.00 L 277.42,175.00 L 278.07,174.79 L 278.50,174.45 L 278.69,174.21 L 279.39,173.02 L 279.56,172.25 L 280.28,169.35 L 280.76,168.02 L 281.08,167.53 L 281.81,166.64 L 282.37,166.23 L 283.61,165.39 L 284.52,164.86 L 286.94,163.19 L 287.46,162.72 L 287.60,162.54 L 287.79,162.21 L 287.75,162.13 L 286.74,160.19 L 286.00,158.71 L 285.62,157.92 L 284.04,154.63 L 283.32,153.03 L 282.60,151.47 L 282.29,150.75 L 281.69,149.37 L 281.44,148.78 L 281.00,147.70 L 280.86,147.30 L 280.62,146.62 L 280.60,146.47 L 280.42,146.03 L 280.15,145.53 L 279.95,145.19 L 279.51,144.45 L 279.23,143.99 L 278.62,143.01 L 278.25,142.45 L 276.65,139.97 L 275.65,138.46 L 273.52,135.26 L 272.29,133.44 L 269.73,129.66 L 268.33,127.60 L 265.44,123.38 L 263.91,121.15 L 257.56,111.98 L 254.28,107.28 L 251.24,102.94 M 766.35,408.96 L 766.30,412.68 L 766.12,419.61 L 766.07,421.28 L 765.94,424.41 L 765.88,425.93 L 765.73,428.72 L 765.65,430.06 L 765.48,432.45 L 765.19,435.50 L 764.53,441.16 L 764.09,444.22 L 764.50,440.91 L 764.88,436.90 L 765.55,428.81 L 765.79,424.61 L 766.19,416.08 L 766.30,411.58 L 766.37,407.84 M 414.34,375.21 L 412.63,375.54 L 409.21,375.91 L 407.50,376.04 L 404.12,376.03 L 402.44,375.98 L 399.12,375.61 L 397.47,375.38 L 394.24,374.66 L 392.63,374.26 L 389.51,373.22 L 387.97,372.65 L 384.98,371.29 L 383.50,370.57 L 380.68,368.91 L 379.28,368.05 L 376.64,366.10 L 376.21,365.77 L 376.87,366.27 L 379.51,368.18 L 380.91,369.03 L 383.73,370.66 L 385.21,371.36 L 388.19,372.70 L 389.73,373.25 L 392.84,374.28 L 394.44,374.67 L 397.66,375.37 L 399.30,375.60 L 402.60,375.96 L 404.27,376.01 L 407.63,376.02 L 409.32,375.88 L 412.71,375.52 L 414.40,375.20 L 417.80,374.45 L 419.49,373.93 L 417.78,374.46 M 765.20,359.50 L 765.30,360.40 L 765.49,362.57 L 765.58,363.71 L 765.74,366.31 L 765.82,367.66 L 765.95,370.63 L 766.02,372.15 L 766.03,372.45 L 765.97,371.31 L 765.69,366.49 L 765.51,364.17 L 764.83,356.97 M 33.56,334.00 L 32.42,340.88 L 31.75,345.24 L 31.46,347.34 L 30.39,355.61 L 29.99,359.80 L 29.61,364.01 L 29.44,366.20 L 29.16,370.29 L 29.16,370.16 L 29.31,367.28 L 29.39,365.88 L 29.57,363.35 L 29.86,360.01 L 30.64,352.55 L 32.84,337.82 L 34.05,330.49 L 34.72,327.31 M 343.31,364.74 L 343.18,365.18 L 343.16,365.20 L 342.46,365.55 L 342.00,365.77 L 341.27,366.12 L 341.74,365.83 L 342.59,365.21 L 343.33,364.65 M 375.48,365.20 L 375.34,365.09 L 374.54,364.36 M 446.42,351.51 L 443.24,356.40 L 446.42,351.51 M 451.74,334.75 L 451.56,336.63 L 450.76,340.45 L 450.30,342.36 L 449.36,345.00 L 450.35,342.13 L 450.81,340.17 L 451.58,336.23 L 451.75,334.25 L 451.98,332.17 M 360.07,341.48 L 360.05,341.40 L 359.88,340.63 M 358.23,332.14 L 358.42,333.22 L 358.80,335.56 L 358.95,336.45 L 358.89,336.19 L 358.22,332.09 M 761.65,335.10 L 761.80,336.11 L 761.43,334.00 L 761.02,331.80 M 469.20,326.64 L 471.24,326.71 L 475.32,326.86 L 477.24,326.96 L 480.95,327.18 L 482.50,327.31 L 483.99,327.43 L 484.63,327.50 L 485.82,327.64 L 486.29,327.71 L 487.12,327.85 L 487.39,327.93 L 487.80,328.07 L 487.83,328.15 L 488.28,328.24 L 488.99,328.29 L 489.54,328.32 L 490.77,328.37 L 491.56,328.40 L 493.28,328.45 L 494.31,328.48 L 496.48,328.53 L 497.73,328.55 L 500.34,328.60 L 501.80,328.62 L 504.81,328.67 L 506.46,328.69 L 509.86,328.73 L 511.69,328.75 L 515.43,328.79 L 517.42,328.80 L 521.49,328.84 L 523.64,328.85 L 528.00,328.88 L 530.28,328.90 L 534.91,328.92 L 537.32,328.93 L 547.18,328.97 L 552.41,328.98 L 563.04,329.00 L 550.62,329.00 L 452.66,329.00 L 452.80,328.61 L 452.99,328.36 L 453.40,328.00 L 453.64,328.00 L 454.60,327.72 L 455.00,327.32 L 455.00,327.06 L 455.36,326.86 L 455.95,326.76 L 456.39,326.72 L 457.37,326.64 L 457.99,326.62 L 459.30,326.57 L 460.06,326.56 L 463.36,326.54 L 465.26,326.57 M 658.76,163.29 L 654.20,165.76 L 651.60,167.18 L 646.20,170.11 L 643.23,171.72 L 637.13,175.04 L 633.88,176.81 L 627.24,180.41 L 623.77,182.29 L 616.75,186.10 L 613.15,188.05 L 602.66,193.76 L 596.03,197.40 L 592.93,199.10 L 586.91,202.44 L 584.17,203.96 L 578.89,206.91 L 576.58,208.22 L 574.33,209.49 L 573.29,210.08 L 571.28,211.23 L 570.37,211.75 L 568.62,212.76 L 567.85,213.21 L 566.38,214.07 L 565.76,214.45 L 564.59,215.15 L 564.12,215.44 L 563.26,215.98 L 562.95,216.18 L 562.42,216.55 L 562.29,216.66 L 562.11,216.83 L 562.15,216.85 L 562.76,217.26 L 563.48,217.85 L 563.98,218.28 L 565.07,219.24 L 565.73,219.85 L 567.14,221.13 L 567.95,221.88 L 569.63,223.45 L 570.56,224.33 L 572.47,226.14 L 573.49,227.11 L 577.73,231.20 L 580.00,233.42 L 581.90,235.27 L 583.36,236.68 L 584.18,237.46 L 585.88,239.09 L 586.81,239.97 L 588.72,241.79 L 589.75,242.77 L 594.06,246.85 L 596.47,249.11 L 601.43,253.78 L 604.09,256.27 L 609.54,261.36 L 612.39,264.02 L 618.16,269.38 L 621.11,272.12 L 633.03,283.16 L 638.86,288.51 L 647.34,296.33 L 652.71,301.31 L 655.21,303.65 L 660.09,308.21 L 662.30,310.30 L 666.57,314.33 L 668.43,316.11 L 670.26,317.85 L 671.09,318.65 L 672.72,320.22 L 673.45,320.93 L 674.86,322.30 L 675.48,322.91 L 676.67,324.09 L 677.17,324.59 L 678.12,325.55 L 678.50,325.94 L 679.19,326.67 L 679.44,326.94 L 679.86,327.42 L 679.97,327.57 L 680.11,327.80 L 680.07,327.81 L 678.67,327.93 L 677.74,327.74 L 677.36,327.55 L 676.68,327.11 L 676.52,326.84 L 676.33,326.28 L 676.50,326.00 L 676.52,325.47 L 676.30,325.03 L 676.09,324.79 L 675.03,323.78 L 674.24,323.32 L 671.74,321.36 L 670.23,319.72 L 669.81,318.99 L 668.81,317.69 L 667.82,316.67 L 667.22,316.13 L 664.55,313.91 L 663.14,312.99 L 661.14,311.60 L 659.98,310.70 L 659.51,310.28 L 658.67,309.50 L 658.41,309.18 L 658.00,308.62 L 658.00,308.45 L 657.64,307.71 L 657.07,307.02 L 656.66,306.60 L 654.70,304.79 L 653.44,303.87 L 651.26,302.16 L 649.56,300.78 L 648.67,300.02 L 646.87,298.48 L 646.01,297.71 L 644.32,296.19 L 643.59,295.50 L 641.00,293.09 L 638.96,291.20 L 637.87,290.21 L 635.67,288.20 L 634.59,287.22 L 632.49,285.32 L 631.56,284.50 L 624.38,278.07 L 621.95,275.88 L 620.63,274.68 L 617.88,272.20 L 616.32,270.78 L 613.06,267.80 L 611.15,266.06 L 609.20,264.28 L 608.14,263.31 L 605.97,261.33 L 604.79,260.25 L 602.37,258.03 L 601.06,256.83 L 598.36,254.37 L 596.91,253.03 L 593.91,250.29 L 592.29,248.81 L 588.97,245.76 L 587.18,244.12 L 581.87,239.27 L 578.47,236.20 L 576.87,234.76 L 573.73,231.94 L 572.29,230.66 L 569.49,228.18 L 568.24,227.09 L 565.86,225.01 L 564.85,224.14 L 562.95,222.52 L 562.21,221.91 L 560.88,220.82 L 560.45,220.50 L 559.76,220.01 L 559.68,220.01 L 557.20,220.36 L 555.28,220.87 L 554.39,221.19 L 552.71,221.85 L 552.17,222.16 L 551.69,222.46 L 551.57,222.59 L 551.40,222.84 L 551.46,222.94 L 551.25,223.39 L 550.74,223.82 L 550.35,224.07 L 548.44,225.19 L 547.24,225.77 L 544.76,226.91 L 543.63,227.32 L 542.55,227.70 L 542.10,227.82 L 541.28,228.00 L 541.01,228.00 L 540.37,228.26 L 540.28,228.64 L 540.43,228.88 L 540.23,229.40 L 539.70,229.88 L 539.27,230.17 L 538.32,230.76 L 537.73,231.07 L 536.46,231.70 L 535.74,232.01 L 531.36,234.13 L 530.04,234.86 L 529.50,235.19 L 528.51,235.82 L 528.19,236.07 L 527.00,236.87 L 526.01,237.43 L 525.47,237.70 L 523.20,238.73 L 522.19,239.05 L 519.29,240.24 L 518.49,240.68 L 518.18,240.88 L 517.64,241.29 L 517.50,241.46 L 515.93,242.78 L 514.38,243.73 L 513.46,244.20 L 511.55,245.10 L 510.56,245.48 L 508.60,246.17 L 507.71,246.39 L 505.89,247.11 L 505.54,247.39 L 505.46,247.53 L 505.37,247.79 L 505.45,247.91 L 505.24,248.37 L 504.74,248.80 L 504.34,249.06 L 502.45,250.18 L 501.25,250.77 L 498.77,251.91 L 497.65,252.32 L 496.57,252.70 L 496.11,252.82 L 495.28,253.00 L 495.01,253.00 L 494.36,253.25 L 494.26,253.61 L 494.40,253.84 L 494.31,254.28 L 493.99,254.65 L 493.73,254.87 L 492.40,255.80 L 491.53,256.26 L 489.68,257.16 L 488.79,257.48 L 487.09,258.00 L 486.52,258.00 L 485.76,258.19 L 485.11,258.50 L 484.74,258.72 L 483.19,259.78 L 482.46,260.45 L 481.04,261.53 L 479.83,262.29 L 479.15,262.66 L 476.25,264.08 L 474.90,264.53 L 473.03,265.23 L 471.97,265.70 L 471.57,265.92 L 470.87,266.35 L 470.67,266.53 L 470.41,266.86 L 470.48,266.97 L 470.26,267.41 L 469.75,267.83 L 469.35,268.09 L 467.44,269.20 L 466.23,269.78 L 463.74,270.92 L 462.62,271.33 L 461.54,271.70 L 461.09,271.82 L 460.27,272.00 L 460.01,272.00 L 459.37,272.26 L 459.28,272.64 L 459.43,272.88 L 459.23,273.40 L 458.70,273.88 L 458.27,274.17 L 457.32,274.76 L 456.73,275.07 L 455.46,275.70 L 454.74,276.01 L 450.36,278.13 L 449.04,278.86 L 448.50,279.19 L 447.51,279.82 L 447.19,280.07 L 446.00,280.87 L 445.01,281.44 L 444.47,281.71 L 442.20,282.77 L 441.19,283.10 L 438.28,284.37 L 437.47,284.85 L 437.16,285.08 L 436.61,285.53 L 436.47,285.72 L 434.87,286.82 L 433.28,287.40 L 432.47,287.50 L 430.89,287.53 L 430.55,287.50 L 442.05,281.12 L 443.77,280.17 L 447.61,278.06 L 449.56,276.99 L 453.52,274.82 L 455.47,273.76 L 459.09,271.79 L 459.95,271.33 L 461.53,270.48 L 463.61,269.36 L 465.62,268.29 L 470.03,265.93 L 472.27,264.73 L 476.95,262.22 L 479.30,260.96 L 483.99,258.44 L 486.31,257.19 L 490.75,254.80 L 492.91,253.64 L 496.83,251.52 L 498.70,250.52 L 501.83,248.82 L 502.55,248.43 L 503.80,247.75 L 504.39,247.43 L 505.35,246.90 L 505.79,246.66 L 506.43,246.30 L 507.00,245.99 L 507.37,245.77 L 508.47,245.14 L 509.07,244.80 L 510.59,243.95 L 511.39,243.50 L 513.26,242.47 L 514.23,241.94 L 516.37,240.76 L 518.58,239.56 L 523.55,236.86 L 526.08,235.49 L 531.29,232.68 L 533.87,231.29 L 538.78,228.67 L 539.96,228.04 L 542.18,226.86 L 543.25,226.29 L 545.21,225.26 L 546.14,224.76 L 547.76,223.91 L 548.53,223.52 L 549.75,222.89 L 550.31,222.60 L 551.06,222.23 L 551.60,222.00 L 551.80,222.00 L 552.59,221.60 L 553.92,220.63 L 553.97,220.58 L 554.40,220.32 L 554.67,220.16 L 555.52,219.66 L 556.00,219.39 L 557.23,218.69 L 557.90,218.32 L 559.50,217.42 L 560.34,216.95 L 562.27,215.87 L 563.28,215.32 L 565.51,214.08 L 566.67,213.44 L 569.18,212.05 L 570.47,211.34 L 573.23,209.82 L 576.05,208.27 L 582.30,204.84 L 585.52,203.08 L 592.40,199.31 L 595.90,197.40 L 603.17,193.43 L 606.84,191.43 L 614.29,187.37 L 618.02,185.34 L 625.41,181.32 L 629.08,179.33 L 636.20,175.47 L 639.70,173.57 L 646.31,169.99 L 649.53,168.25 L 655.41,165.08 L 656.82,164.32 L 659.47,162.89 L 659.72,162.76 M 37.62,313.86 L 34.87,326.59 L 37.10,316.02 L 38.73,308.83 L 39.07,307.58 M 758.58,319.14 L 759.00,321.33 L 758.07,317.00 M 42.25,295.97 L 42.61,294.66 L 42.64,294.53 M 408.08,28.59 L 411.84,28.63 L 418.86,28.80 L 420.56,28.85 L 423.76,28.97 L 425.33,29.04 L 428.22,29.20 L 429.63,29.28 L 432.16,29.47 L 435.50,29.79 L 442.37,30.59 L 455.87,32.66 L 462.58,33.77 L 475.76,36.47 L 482.31,37.91 L 495.18,41.25 L 501.59,43.00 L 514.17,46.98 L 520.43,49.06 L 532.75,53.69 L 538.87,56.09 L 550.93,61.38 L 556.92,64.11 L 568.74,70.06 L 586.20,79.73 L 592.90,83.67 L 551.70,131.52 L 550.29,133.16 L 547.27,136.66 L 545.74,138.44 L 542.51,142.19 L 539.24,145.99 L 532.17,154.20 L 528.57,158.37 L 521.04,167.13 L 517.23,171.54 L 509.46,180.57 L 507.90,182.38 L 507.88,182.25 L 507.77,180.13 L 507.94,178.87 L 508.13,178.33 L 508.59,177.34 L 508.91,176.98 L 509.63,176.33 L 510.08,176.17 L 510.85,175.45 L 510.81,175.07 L 510.67,174.81 L 510.33,174.25 L 510.03,173.88 L 509.35,173.07 L 508.86,172.56 L 507.79,171.47 L 507.10,170.79 L 505.60,169.35 L 504.67,168.48 L 502.69,166.63 L 501.51,165.54 L 490.86,155.67 L 434.96,211.59 L 379.06,267.50 L 380.78,275.50 L 381.90,281.95 L 382.12,283.80 L 382.17,284.53 L 382.23,285.85 L 382.19,286.22 L 381.99,287.42 L 381.99,287.34 L 381.85,286.40 L 381.76,285.83 L 381.45,284.10 L 381.27,283.15 L 380.81,280.72 L 380.56,279.42 L 379.96,276.39 L 379.65,274.80 L 378.94,271.26 L 378.57,269.43 L 377.76,265.47 L 377.35,263.45 L 376.46,259.17 L 375.08,252.50 L 374.36,249.08 L 372.80,241.62 L 372.00,237.79 L 370.28,229.61 L 369.41,225.44 L 367.58,216.68 L 366.65,212.24 L 364.72,203.05 L 362.78,193.77 L 358.74,174.50 L 356.72,164.83 L 352.71,145.63 L 351.71,140.89 L 349.77,131.62 L 348.81,127.02 L 346.95,118.15 L 346.04,113.78 L 344.30,105.45 L 343.44,101.36 L 341.84,93.72 L 341.07,90.00 L 339.64,83.18 L 338.95,79.88 L 337.73,74.03 L 337.44,72.63 L 336.89,70.05 L 336.63,68.79 L 336.15,66.49 L 335.92,65.38 L 335.50,63.39 L 334.96,60.76 L 334.27,57.50 L 333.03,51.44 L 332.98,51.17 L 334.14,56.69 L 334.77,59.56 L 336.02,65.33 L 336.64,68.10 L 337.85,73.51 L 338.40,75.87 L 338.93,78.16 L 339.17,79.18 L 339.64,81.14 L 339.84,81.97 L 340.23,83.52 L 340.39,84.11 L 340.68,85.17 L 340.78,85.50 L 342.30,89.77 L 342.82,91.08 L 343.06,91.63 L 343.51,92.66 L 343.69,93.00 L 344.61,95.15 L 344.99,96.45 L 344.99,96.82 L 345.30,98.31 L 345.75,99.53 L 346.04,100.07 L 346.86,101.36 L 347.32,101.62 L 347.81,101.83 L 348.07,101.83 L 348.63,101.77 L 348.95,101.64 L 349.61,101.30 L 349.98,101.02 L 350.77,100.40 L 351.22,99.97 L 352.16,99.05 L 352.70,98.47 L 353.82,97.24 L 354.46,96.50 L 356.40,94.36 L 357.63,93.11 L 358.17,92.62 L 359.19,91.71 L 359.57,91.43 L 360.25,91.00 L 360.42,91.00 L 361.44,90.41 L 362.56,89.51 L 363.28,88.86 L 364.79,87.46 L 365.63,86.64 L 367.35,84.94 L 368.22,84.05 L 369.95,82.25 L 370.75,81.39 L 372.28,79.70 L 372.91,78.97 L 374.07,77.59 L 374.43,77.09 L 375.00,76.21 L 375.00,76.04 L 375.26,75.51 L 375.66,75.02 L 375.95,74.73 L 377.36,73.48 L 378.25,72.85 L 380.63,71.05 L 381.22,70.55 L 381.42,70.36 L 381.75,70.01 L 381.79,69.92 L 382.13,69.41 L 382.57,68.85 L 382.86,68.49 L 384.22,66.87 L 385.04,65.96 L 387.13,63.39 L 387.62,62.70 L 387.77,62.44 L 388.00,61.99 L 388.00,61.89 L 388.59,61.17 L 389.46,60.67 L 390.01,60.50 L 391.29,59.81 L 391.67,59.27 L 391.53,59.04 L 391.63,58.48 L 391.98,57.90 L 392.27,57.54 L 393.74,55.93 L 394.76,55.06 L 398.31,52.04 L 400.34,50.29 L 401.20,49.53 L 402.83,48.10 L 403.50,47.49 L 404.76,46.35 L 405.27,45.87 L 406.19,44.97 L 406.54,44.61 L 407.17,43.93 L 407.39,43.66 L 407.76,43.16 L 407.86,42.97 L 408.00,42.62 L 408.00,42.49 L 408.22,41.93 L 408.56,41.49 L 408.81,41.26 L 409.99,40.31 L 410.75,39.92 L 412.05,39.15 L 413.05,38.48 L 413.57,38.10 L 415.67,36.50 L 416.50,35.73 L 417.97,34.29 L 418.56,33.57 L 418.67,33.30 L 418.77,32.81 L 418.65,32.60 L 418.31,32.20 L 418.00,32.00 L 416.01,31.31 L 414.20,31.02 L 413.33,31.02 L 410.97,30.64 L 410.37,30.39 L 410.16,30.24 L 409.80,29.92 L 409.74,29.75 L 409.24,29.44 L 408.53,29.26 L 408.01,29.18 L 406.86,29.03 L 406.13,28.97 L 404.58,28.85 L 403.67,28.80 L 401.77,28.72 L 400.71,28.69 L 398.52,28.64 L 397.33,28.62 L 393.52,28.60 L 396.56,28.57 L 400.45,28.55 M 505.56,185.09 L 497.79,194.12 L 493.92,198.61 L 486.38,207.37 L 482.66,211.69 L 475.58,219.91 L 473.85,221.92 L 470.52,225.78 L 465.75,231.32 L 462.67,234.90 L 456.76,241.78 L 453.85,245.16 L 448.37,251.55 L 445.70,254.68 L 440.77,260.45 L 439.58,261.84 L 437.33,264.49 L 436.22,265.79 L 434.15,268.23 L 433.13,269.42 L 431.25,271.64 L 430.34,272.72 L 428.67,274.70 L 427.86,275.65 L 426.42,277.37 L 425.73,278.19 L 424.53,279.62 L 423.96,280.31 L 423.02,281.44 L 422.58,281.97 L 421.91,282.80 L 421.61,283.17 L 421.36,283.50 L 421.43,282.26 L 421.20,281.32 L 420.96,280.94 L 420.64,279.55 L 420.91,278.66 L 421.24,278.29 L 422.02,277.59 L 422.56,277.36 L 423.72,277.00 L 424.40,277.00 L 425.43,276.86 L 425.95,276.63 L 426.14,276.42 L 426.46,275.94 L 426.57,275.60 L 426.74,274.85 L 426.78,274.35 L 427.18,272.40 L 427.64,271.19 L 427.93,270.70 L 428.55,269.80 L 428.87,269.52 L 429.54,269.11 L 429.85,269.15 L 431.65,269.22 L 432.53,269.04 L 432.81,268.83 L 433.29,268.32 L 433.40,267.94 L 433.51,267.08 L 433.45,266.50 L 433.52,264.63 L 433.90,263.69 L 434.29,263.35 L 435.19,262.74 L 435.88,262.55 L 437.40,262.22 L 438.41,262.12 L 439.38,261.37 L 439.63,260.27 L 439.55,259.48 L 439.60,257.60 L 439.96,256.66 L 440.33,256.33 L 441.21,255.74 L 441.87,255.54 L 443.36,255.22 L 444.36,255.12 L 445.28,254.39 L 445.60,253.38 L 445.56,252.75 L 445.69,250.75 L 446.07,249.66 L 446.40,249.26 L 447.15,248.53 L 447.65,248.32 L 448.74,248.00 L 449.40,248.00 L 450.44,247.86 L 450.96,247.62 L 451.14,247.41 L 451.47,246.93 L 451.57,246.58 L 451.75,245.80 L 451.79,245.29 L 452.10,243.28 L 452.47,242.32 L 452.78,242.00 L 453.48,241.44 L 454.00,241.25 L 455.17,240.94 L 455.97,240.83 L 457.16,240.55 L 457.73,240.24 L 457.93,240.01 L 458.25,239.50 L 458.34,239.14 L 458.46,238.35 L 458.47,237.83 L 458.74,235.70 L 459.10,234.56 L 459.33,234.33 L 460.64,233.51 L 461.27,233.36 L 461.72,233.30 L 462.72,233.19 L 463.41,233.12 L 464.38,232.37 L 464.64,231.29 L 464.55,230.51 L 464.62,228.45 L 465.03,227.41 L 465.42,227.05 L 466.33,226.42 L 466.99,226.25 L 468.46,226.00 L 469.41,226.00 L 470.39,225.36 L 470.64,224.31 L 470.55,223.51 L 470.76,221.42 L 471.26,220.20 L 471.64,219.89 L 472.60,219.32 L 473.00,219.32 L 473.00,219.53 L 473.16,219.69 L 473.41,219.64 L 473.60,219.54 L 474.48,218.97 L 475.04,218.47 L 476.34,216.82 L 476.74,215.76 L 476.61,215.43 L 476.60,214.20 L 477.01,213.42 L 477.37,213.10 L 478.21,212.50 L 478.74,212.30 L 479.86,212.00 L 480.48,212.00 L 481.46,211.86 L 481.96,211.62 L 482.15,211.41 L 482.47,210.93 L 482.57,210.59 L 482.74,209.84 L 482.78,209.35 L 483.18,207.40 L 483.64,206.19 L 483.93,205.70 L 484.55,204.80 L 484.87,204.52 L 485.54,204.11 L 485.85,204.15 L 487.64,204.22 L 488.52,204.04 L 488.81,203.83 L 489.29,203.33 L 489.39,202.95 L 489.52,202.11 L 489.46,201.55 L 489.71,199.81 L 490.21,198.59 L 490.56,198.07 L 491.29,197.13 L 491.66,196.88 L 492.38,196.55 L 492.65,196.75 L 493.79,197.17 L 494.49,197.07 L 494.77,196.85 L 495.28,196.32 L 495.42,195.92 L 495.61,195.04 L 495.55,194.51 L 495.78,192.76 L 496.27,191.55 L 496.61,191.04 L 497.32,190.11 L 497.68,189.86 L 498.38,189.55 L 498.65,189.75 L 499.79,190.17 L 500.49,190.07 L 500.77,189.85 L 501.28,189.32 L 501.42,188.92 L 501.61,188.04 L 501.55,187.51 L 501.68,185.48 L 502.08,184.35 L 502.39,184.09 L 503.95,183.18 L 504.57,183.06 L 504.98,183.04 L 505.88,183.00 L 506.50,183.00 L 507.52,182.78 L 507.64,182.69 M 715.34,208.92 L 723.02,222.67 L 726.74,229.60 L 733.51,243.82 L 736.78,250.99 L 742.62,265.66 L 745.43,273.05 L 748.03,281.01 L 745.11,272.20 L 742.22,264.71 L 736.20,249.81 L 732.83,242.52 L 725.87,228.04 L 722.05,220.99 L 714.47,207.52 M 51.66,267.23 L 51.78,266.89 L 52.61,264.85 M 59.68,247.69 L 60.10,246.71 L 61.64,243.48 M 68.69,228.88 L 69.57,227.10 L 71.59,223.44 M 78.64,210.80 L 80.18,208.11 L 82.50,204.44 M 89.46,193.50 L 91.88,189.79 L 94.33,186.37 M 702.58,188.95 L 703.53,190.42 L 703.39,190.21 L 701.20,187.04 M 101.07,177.02 L 104.66,172.18 L 107.07,169.20 M 120.13,153.54 L 113.58,161.18 L 113.81,160.89 L 118.47,155.32 L 121.13,152.41 M 133.95,138.71 L 127.38,145.57 L 128.31,144.56 L 133.31,139.25 L 135.93,136.70 M 148.62,124.60 L 142.14,130.66 L 143.80,129.05 L 149.13,124.02 L 151.46,122.01 M 164.10,111.25 L 157.88,116.47 L 160.26,114.41 L 165.91,109.68 L 167.78,108.24 M 180.36,98.70 L 174.66,102.98 L 177.66,100.68 L 183.62,96.26 L 184.91,95.38 M 192.68,90.13 L 195.97,87.90 L 196.44,87.61 M 331.78,34.22 L 331.32,34.42 L 330.53,34.82 L 330.32,35.02 L 330.00,35.43 L 330.00,35.41 L 330.31,35.01 L 330.52,34.81 L 331.29,34.43 L 331.74,34.23 L 333.04,33.84 L 333.10,33.83 M 333.26,33.78 L 333.76,33.64 L 333.77,33.64 M 372.25,29.17 L 366.54,29.50 L 363.88,29.70 L 358.73,30.12 L 356.50,30.38 L 349.61,31.19 L 345.62,31.68 L 343.91,31.92 L 340.67,32.37 L 339.31,32.59 L 337.82,32.84 L 339.21,32.60 L 340.56,32.38 L 343.81,31.91 L 345.53,31.67 L 349.54,31.15 L 356.50,30.30 L 357.59,30.17 L 360.10,29.94 L 361.40,29.82 L 364.27,29.61 L 365.74,29.51 L 368.92,29.33 L 370.55,29.24 L 373.82,29.09 M 377.16,28.95 L 377.47,28.94 L 377.67,28.94 Z" fill="rgba(224,224,224,1)"/>
<path d="M 338.73,416.50 L 338.75,416.71 L 338.70,417.91 L 338.67,418.63 L 338.53,420.78 L 338.45,421.96 L 338.22,424.94 L 338.10,426.52 L 337.80,430.21 L 337.64,432.14 L 337.28,436.42 L 337.08,438.63 L 336.66,443.40 L 336.45,445.84 L 335.98,450.97 L 335.23,458.96 L 331.50,498.43 L 328.00,499.34 L 326.82,499.64 L 323.84,500.52 L 322.26,500.99 L 318.65,502.13 L 316.79,502.73 L 312.80,504.06 L 310.78,504.74 L 306.64,506.18 L 304.57,506.90 L 300.52,508.36 L 298.53,509.08 L 294.80,510.48 L 293.01,511.16 L 289.85,512.41 L 286.00,514.03 L 283.00,515.38 L 276.85,518.40 L 273.76,519.95 L 267.59,523.28 L 264.52,524.98 L 258.54,528.52 L 250.00,533.93 L 248.58,534.88 L 246.24,536.44 L 245.15,537.16 L 243.40,538.31 L 242.59,538.84 L 241.37,539.63 L 240.81,539.98 L 240.03,540.44 L 239.70,540.64 L 239.30,540.82 L 239.14,540.88 L 239.05,540.82 L 239.04,540.77 L 239.18,540.51 L 239.28,540.36 L 239.59,539.94 L 239.63,539.89 L 239.95,539.47 L 240.16,539.21 L 240.81,538.38 L 241.17,537.91 L 242.12,536.69 L 242.63,536.04 L 243.87,534.45 L 244.52,533.61 L 246.03,531.68 L 246.82,530.68 L 248.58,528.43 L 249.49,527.26 L 251.49,524.71 L 252.51,523.40 L 254.73,520.56 L 255.86,519.12 L 258.27,516.03 L 259.51,514.45 L 262.11,511.13 L 264.75,507.75 L 270.51,500.38 L 273.46,496.61 L 279.74,488.58 L 289.59,476.00 L 292.29,472.55 L 297.27,466.20 L 299.68,463.11 L 304.11,457.47 L 306.26,454.73 L 310.16,449.76 L 312.06,447.36 L 315.48,443.02 L 317.14,440.92 L 320.11,437.18 L 321.54,435.38 L 324.09,432.19 L 325.31,430.66 L 327.47,427.99 L 328.50,426.72 L 330.30,424.53 L 331.16,423.50 L 332.63,421.75 L 333.32,420.93 L 334.49,419.59 L 335.05,418.97 L 335.95,418.00 L 336.38,417.55 L 337.05,416.91 L 337.36,416.62 L 337.83,416.27 L 338.04,416.13 L 338.34,416.03 M 681.91,161.63 L 684.45,164.67 L 689.37,170.89 L 691.81,174.02 L 696.53,180.42 L 698.87,183.64 L 703.39,190.21 L 705.62,193.52 L 709.93,200.25 L 714.19,207.01 L 722.05,220.99 L 725.87,228.04 L 732.83,242.52 L 736.20,249.81 L 742.22,264.71 L 745.11,272.20 L 750.15,287.44 L 752.55,295.09 L 756.58,310.58 L 757.52,314.46 L 759.20,322.26 L 761.43,334.00 L 761.95,337.02 L 762.84,342.50 L 763.27,345.17 L 763.97,350.13 L 764.64,355.00 L 765.51,364.17 L 765.69,366.49 L 765.97,371.31 L 766.09,373.76 L 766.26,379.00 L 766.33,381.70 L 766.42,387.61 L 766.46,397.50 L 766.46,402.41 L 766.30,411.58 L 766.19,416.08 L 765.79,424.61 L 765.55,428.81 L 764.88,436.90 L 764.50,440.91 L 763.53,448.78 L 763.00,452.71 L 761.70,460.58 L 761.01,464.53 L 759.35,472.61 L 758.47,476.69 L 756.43,485.19 L 752.89,498.66 L 749.82,509.81 L 741.16,504.37 L 738.75,502.85 L 733.70,499.89 L 731.14,498.43 L 725.85,495.59 L 720.51,492.79 L 709.36,487.65 L 703.74,485.18 L 692.37,480.87 L 689.54,479.86 L 683.92,478.01 L 675.61,475.56 L 674.31,475.20 L 672.08,474.58 L 671.03,474.28 L 669.28,473.76 L 668.46,473.50 L 667.12,473.05 L 666.49,472.83 L 665.50,472.42 L 665.04,472.22 L 664.35,471.83 L 664.03,471.63 L 663.56,471.23 L 662.75,469.88 L 662.73,469.80 L 662.65,469.29 L 662.60,468.98 L 662.48,468.03 L 662.41,467.51 L 662.26,466.15 L 662.18,465.42 L 661.99,463.67 L 661.89,462.75 L 661.66,460.63 L 661.55,459.53 L 661.30,457.07 L 661.17,455.80 L 660.89,453.02 L 660.75,451.59 L 660.45,448.52 L 660.14,445.37 L 659.46,438.30 L 659.11,434.65 L 658.36,426.70 L 657.98,422.64 L 657.18,414.01 L 655.95,400.50 L 655.53,395.89 L 654.72,387.00 L 654.33,382.61 L 653.56,374.31 L 653.19,370.25 L 652.49,362.72 L 652.15,359.07 L 651.54,352.52 L 651.39,350.95 L 651.11,348.03 L 650.98,346.60 L 650.73,343.99 L 650.61,342.72 L 650.38,340.44 L 650.28,339.34 L 650.09,337.41 L 650.00,336.49 L 649.84,334.94 L 649.77,334.22 L 649.65,333.07 L 649.59,332.55 L 649.51,331.83 L 649.43,331.25 L 648.96,329.00 L 563.04,329.00 L 552.41,328.98 L 547.18,328.97 L 537.32,328.93 L 534.91,328.92 L 530.28,328.90 L 528.00,328.88 L 523.64,328.85 L 521.49,328.84 L 517.42,328.80 L 515.43,328.79 L 515.02,328.78 L 515.11,328.78 L 518.80,328.81 L 520.73,328.83 L 528.71,328.88 L 532.99,328.90 L 541.74,328.94 L 546.32,328.95 L 555.59,328.97 L 560.35,328.98 L 579.62,328.99 L 589.14,328.97 L 598.60,328.94 L 603.18,328.93 L 612.23,328.89 L 616.51,328.86 L 624.91,328.80 L 628.78,328.77 L 632.60,328.73 L 634.41,328.71 L 637.97,328.68 L 639.64,328.65 L 642.90,328.61 L 644.42,328.59 L 647.37,328.54 L 648.72,328.51 L 651.32,328.46 L 652.48,328.43 L 654.71,328.38 L 655.67,328.35 L 661.64,328.15 L 664.99,328.02 L 666.39,327.96 L 669.00,327.83 L 670.06,327.76 L 672.02,327.62 L 672.78,327.54 L 674.17,327.38 L 674.67,327.29 L 675.57,327.10 L 675.87,326.99 L 676.36,326.76 L 676.46,326.67 L 676.52,326.84 L 676.68,327.11 L 677.36,327.55 L 677.74,327.74 L 678.67,327.93 L 680.07,327.81 L 680.11,327.80 L 679.97,327.57 L 679.86,327.42 L 679.44,326.94 L 679.19,326.67 L 678.50,325.94 L 678.12,325.55 L 677.17,324.59 L 676.67,324.09 L 675.48,322.91 L 674.86,322.30 L 673.45,320.93 L 672.72,320.22 L 671.09,318.65 L 670.26,317.85 L 668.43,316.11 L 666.57,314.33 L 662.30,310.30 L 660.09,308.21 L 655.21,303.65 L 652.71,301.31 L 647.34,296.33 L 638.86,288.51 L 633.03,283.16 L 621.11,272.12 L 618.16,269.38 L 612.39,264.02 L 609.54,261.36 L 604.09,256.27 L 601.43,253.78 L 596.47,249.11 L 594.06,246.85 L 589.75,242.77 L 588.72,241.79 L 586.81,239.97 L 585.88,239.09 L 584.18,237.46 L 583.36,236.68 L 581.90,235.27 L 580.00,233.42 L 577.73,231.20 L 573.49,227.11 L 572.47,226.14 L 570.56,224.33 L 569.63,223.45 L 567.95,221.88 L 567.14,221.13 L 565.73,219.85 L 565.07,219.24 L 563.98,218.28 L 563.48,217.85 L 562.76,217.26 L 562.15,216.85 L 562.11,216.83 L 562.29,216.66 L 562.42,216.55 L 562.95,216.18 L 563.26,215.98 L 564.12,215.44 L 564.59,215.15 L 565.76,214.45 L 566.38,214.07 L 567.85,213.21 L 568.62,212.76 L 570.37,211.75 L 571.28,211.23 L 573.29,210.08 L 574.33,209.49 L 576.58,208.22 L 578.89,206.91 L 584.17,203.96 L 586.91,202.44 L 592.93,199.10 L 596.03,197.40 L 602.66,193.76 L 613.15,188.05 L 616.75,186.10 L 623.77,182.29 L 627.24,180.41 L 633.88,176.81 L 637.13,175.04 L 643.23,171.72 L 646.20,170.11 L 651.60,167.18 L 654.20,165.76 L 658.76,163.29 L 659.83,162.70 L 661.80,161.63 L 662.75,161.11 L 664.45,160.18 L 665.27,159.74 L 666.68,158.97 L 667.35,158.60 L 668.46,158.00 L 668.97,157.72 L 669.76,157.29 L 670.54,156.85 L 675.58,154.04 M 346.71,329.37 L 346.74,329.40 L 346.76,329.80 L 346.77,330.04 L 346.75,330.84 L 346.73,331.28 L 346.68,332.43 L 346.64,333.05 L 346.55,334.51 L 346.44,336.04 L 346.14,339.84 L 345.57,346.27 L 345.35,348.54 L 344.96,352.76 L 344.77,354.78 L 344.46,358.23 L 344.39,359.03 L 344.27,360.41 L 344.21,361.07 L 344.12,362.13 L 344.08,362.61 L 344.03,363.30 L 344.00,363.86 L 344.00,363.97 L 343.62,364.39 L 343.37,364.62 L 342.59,365.21 L 341.74,365.83 L 339.37,367.28 L 338.17,367.99 L 335.86,369.17 L 335.33,369.42 L 334.47,369.77 L 333.56,370.00 L 333.43,370.00 L 333.38,369.56 L 333.39,369.29 L 333.64,368.50 L 333.80,368.09 L 334.29,367.44 L 335.04,367.00 L 335.34,367.00 L 335.83,366.46 L 335.96,366.25 L 336.21,365.55 L 336.34,365.14 L 336.64,363.98 L 336.79,363.34 L 337.14,361.61 L 337.33,360.67 L 337.76,358.26 L 337.99,356.97 L 338.54,353.78 L 339.51,348.00 L 339.78,346.44 L 340.25,343.73 L 340.47,342.44 L 340.89,340.23 L 341.09,339.18 L 341.47,337.42 L 341.65,336.59 L 342.01,335.21 L 342.18,334.57 L 342.53,333.52 L 342.70,333.04 L 343.05,332.27 L 344.19,330.72 L 344.77,330.24 L 345.79,329.60 L 346.02,329.47 L 346.38,329.35 M 674.24,323.32 L 675.03,323.78 L 676.09,324.79 L 676.30,325.03 L 676.52,325.47 L 676.51,325.69 L 676.46,325.51 L 676.13,324.98 L 675.88,324.70 L 674.74,323.61 L 674.00,323.19 L 671.67,321.32 L 670.23,319.72 L 671.74,321.36 Z" fill="rgba(193,194,194,1)"/>
<path d="M 482.55,616.85 L 482.53,616.81 L 482.35,616.09 L 482.24,615.62 L 481.89,614.10 L 481.69,613.25 L 481.16,610.97 L 480.88,609.74 L 480.19,606.75 L 479.83,605.17 L 478.99,601.50 L 478.55,599.59 L 477.57,595.29 L 477.06,593.07 L 475.94,588.18 L 475.37,585.67 L 474.13,580.24 L 473.50,577.46 L 472.14,571.52 L 471.45,568.49 L 470.00,562.09 L 469.26,558.84 L 467.71,552.01 L 466.92,548.55 L 465.28,541.35 L 464.45,537.70 L 462.74,530.16 L 461.88,526.36 L 460.10,518.52 L 454.56,494.11 L 452.67,485.76 L 449.03,469.72 L 448.13,465.77 L 446.39,458.09 L 445.52,454.30 L 443.85,446.94 L 443.02,443.31 L 441.42,436.32 L 440.64,432.87 L 439.13,426.29 L 438.39,423.05 L 436.99,416.91 L 436.30,413.90 L 435.01,408.25 L 434.37,405.49 L 433.20,400.37 L 432.62,397.88 L 431.58,393.33 L 431.07,391.13 L 430.16,387.20 L 429.72,385.31 L 428.96,382.03 L 428.60,380.48 L 427.99,377.90 L 427.71,376.70 L 427.27,374.85 L 427.07,374.03 L 426.81,372.96 L 426.62,372.29 L 426.56,372.23 L 425.93,372.29 L 425.54,372.34 L 424.35,372.59 L 423.70,372.74 L 422.13,373.16 L 419.49,373.93 L 417.80,374.45 L 414.40,375.20 L 412.71,375.52 L 409.32,375.88 L 407.63,376.02 L 404.27,376.01 L 402.60,375.96 L 399.30,375.60 L 397.66,375.37 L 394.44,374.67 L 392.84,374.28 L 389.73,373.25 L 388.19,372.70 L 385.21,371.36 L 383.73,370.66 L 380.91,369.03 L 379.51,368.18 L 376.87,366.27 L 375.57,365.28 L 373.13,363.11 L 371.94,361.99 L 369.72,359.57 L 368.65,358.33 L 366.69,355.68 L 365.75,354.32 L 364.07,351.45 L 363.27,349.99 L 361.90,346.91 L 361.26,345.35 L 360.21,342.09 L 359.05,337.00 L 358.80,335.56 L 358.42,333.22 L 358.23,332.14 L 357.81,330.45 L 357.58,329.67 L 356.93,328.53 L 356.56,328.02 L 355.47,327.33 L 354.85,327.04 L 353.13,326.71 L 352.16,326.57 L 349.60,326.50 L 348.89,326.49 L 347.29,326.51 L 346.46,326.52 L 344.58,326.57 L 343.60,326.60 L 341.42,326.67 L 337.77,326.78 L 336.19,326.82 L 333.38,326.89 L 332.02,326.92 L 329.65,326.95 L 328.52,326.96 L 326.57,326.96 L 325.65,326.95 L 324.11,326.92 L 323.39,326.89 L 322.26,326.82 L 321.74,326.78 L 320.99,326.68 L 320.66,326.62 L 320.28,326.48 L 320.12,326.22 L 320.16,326.09 L 320.79,325.33 L 321.18,324.88 L 322.43,323.54 L 323.12,322.81 L 324.90,320.99 L 325.85,320.02 L 328.07,317.79 L 329.23,316.64 L 331.80,314.10 L 333.12,312.80 L 335.94,310.03 L 338.82,307.23 L 344.94,301.32 L 348.01,298.37 L 353.98,292.70 L 355.43,291.33 L 358.16,288.76 L 359.50,287.51 L 361.95,285.24 L 363.12,284.15 L 365.19,282.27 L 366.16,281.39 L 367.75,279.99 L 368.48,279.35 L 369.50,278.52 L 370.29,278.00 L 370.70,278.00 L 371.52,278.51 L 372.40,279.75 L 372.65,280.44 L 373.38,281.96 L 373.76,282.72 L 374.56,284.07 L 374.95,284.69 L 375.56,285.46 L 375.69,285.59 L 375.88,285.68 L 376.00,285.50 L 376.01,285.17 L 376.21,285.00 L 376.77,285.50 L 376.97,285.77 L 377.93,286.56 L 379.69,287.72 L 380.19,288.00 L 380.88,288.30 L 381.18,288.41 L 381.58,288.32 L 381.75,288.21 L 381.96,287.66 L 382.19,286.22 L 382.23,285.85 L 382.17,284.53 L 382.12,283.80 L 381.90,281.95 L 380.78,275.50 L 379.06,267.50 L 434.96,211.59 L 490.86,155.67 L 501.51,165.54 L 502.69,166.63 L 504.67,168.48 L 505.60,169.35 L 507.10,170.79 L 507.79,171.47 L 508.86,172.56 L 509.35,173.07 L 510.03,173.88 L 510.33,174.25 L 510.67,174.81 L 510.81,175.07 L 510.85,175.45 L 510.08,176.17 L 509.63,176.33 L 508.91,176.98 L 508.59,177.34 L 508.13,178.33 L 507.94,178.87 L 507.77,180.13 L 507.88,182.25 L 507.91,182.46 L 507.52,182.78 L 506.50,183.00 L 505.88,183.00 L 504.98,183.04 L 504.57,183.06 L 503.95,183.18 L 502.39,184.09 L 502.08,184.35 L 501.68,185.48 L 501.55,187.51 L 501.61,188.04 L 501.42,188.92 L 501.28,189.32 L 500.77,189.85 L 500.49,190.07 L 499.79,190.17 L 498.65,189.75 L 498.38,189.55 L 497.68,189.86 L 497.32,190.11 L 496.61,191.04 L 496.27,191.55 L 495.78,192.76 L 495.55,194.51 L 495.61,195.04 L 495.42,195.92 L 495.28,196.32 L 494.77,196.85 L 494.49,197.07 L 493.79,197.17 L 492.65,196.75 L 492.38,196.55 L 491.66,196.88 L 491.29,197.13 L 490.56,198.07 L 490.21,198.59 L 489.71,199.81 L 489.46,201.55 L 489.52,202.11 L 489.39,202.95 L 489.29,203.33 L 488.81,203.83 L 488.52,204.04 L 487.64,204.22 L 485.85,204.15 L 485.54,204.11 L 484.87,204.52 L 484.55,204.80 L 483.93,205.70 L 483.64,206.19 L 483.18,207.40 L 482.78,209.35 L 482.74,209.84 L 482.57,210.59 L 482.47,210.93 L 482.15,211.41 L 481.96,211.62 L 481.46,211.86 L 480.48,212.00 L 479.86,212.00 L 478.74,212.30 L 478.21,212.50 L 477.37,213.10 L 477.01,213.42 L 476.60,214.20 L 476.61,215.43 L 476.74,215.76 L 476.34,216.82 L 475.04,218.47 L 474.48,218.97 L 473.60,219.54 L 473.41,219.64 L 473.16,219.69 L 473.00,219.53 L 473.00,219.32 L 472.60,219.32 L 471.64,219.89 L 471.26,220.20 L 470.76,221.42 L 470.55,223.51 L 470.64,224.31 L 470.39,225.36 L 469.41,226.00 L 468.46,226.00 L 466.99,226.25 L 466.33,226.42 L 465.42,227.05 L 465.03,227.41 L 464.62,228.45 L 464.55,230.51 L 464.64,231.29 L 464.38,232.37 L 463.41,233.12 L 462.72,233.19 L 461.72,233.30 L 461.27,233.36 L 460.64,233.51 L 459.33,234.33 L 459.10,234.56 L 458.74,235.70 L 458.47,237.83 L 458.46,238.35 L 458.34,239.14 L 458.25,239.50 L 457.93,240.01 L 457.73,240.24 L 457.16,240.55 L 455.97,240.83 L 455.17,240.94 L 454.00,241.25 L 453.48,241.44 L 452.78,242.00 L 452.47,242.32 L 452.10,243.28 L 451.79,245.29 L 451.75,245.80 L 451.57,246.58 L 451.47,246.93 L 451.14,247.41 L 450.96,247.62 L 450.44,247.86 L 449.40,248.00 L 448.74,248.00 L 447.65,248.32 L 447.15,248.53 L 446.40,249.26 L 446.07,249.66 L 445.69,250.75 L 445.56,252.75 L 445.60,253.38 L 445.28,254.39 L 444.36,255.12 L 443.36,255.22 L 441.87,255.54 L 441.21,255.74 L 440.33,256.33 L 439.96,256.66 L 439.60,257.60 L 439.55,259.48 L 439.63,260.27 L 439.38,261.37 L 438.41,262.12 L 437.40,262.22 L 435.88,262.55 L 435.19,262.74 L 434.29,263.35 L 433.90,263.69 L 433.52,264.63 L 433.45,266.50 L 433.51,267.08 L 433.40,267.94 L 433.29,268.32 L 432.81,268.83 L 432.53,269.04 L 431.65,269.22 L 429.85,269.15 L 429.54,269.11 L 428.87,269.52 L 428.55,269.80 L 427.93,270.70 L 427.64,271.19 L 427.18,272.40 L 426.78,274.35 L 426.74,274.85 L 426.57,275.60 L 426.46,275.94 L 426.14,276.42 L 425.95,276.63 L 425.43,276.86 L 424.40,277.00 L 423.72,277.00 L 422.56,277.36 L 422.02,277.59 L 421.24,278.29 L 420.91,278.66 L 420.64,279.55 L 420.96,280.94 L 421.20,281.32 L 421.43,282.26 L 421.36,283.51 L 421.28,283.70 L 421.51,284.15 L 421.67,284.39 L 422.31,284.87 L 422.67,285.11 L 423.62,285.59 L 424.12,285.83 L 425.28,286.28 L 426.47,286.71 L 429.06,287.30 L 429.70,287.41 L 430.89,287.53 L 432.47,287.50 L 433.28,287.40 L 434.87,286.82 L 436.47,285.72 L 436.61,285.53 L 437.16,285.08 L 437.47,284.85 L 438.28,284.37 L 441.19,283.10 L 442.20,282.77 L 444.47,281.71 L 445.01,281.44 L 446.00,280.87 L 447.19,280.07 L 447.51,279.82 L 448.50,279.19 L 449.04,278.86 L 450.36,278.13 L 454.74,276.01 L 455.46,275.70 L 456.73,275.07 L 457.32,274.76 L 458.27,274.17 L 458.70,273.88 L 459.23,273.40 L 459.43,272.88 L 459.28,272.64 L 459.37,272.26 L 460.01,272.00 L 460.27,272.00 L 461.09,271.82 L 461.54,271.70 L 462.62,271.33 L 463.74,270.92 L 466.23,269.78 L 467.44,269.20 L 469.35,268.09 L 469.75,267.83 L 470.26,267.41 L 470.48,266.97 L 470.41,266.86 L 470.67,266.53 L 470.87,266.35 L 471.57,265.92 L 471.97,265.70 L 473.03,265.23 L 474.90,264.53 L 476.25,264.08 L 479.15,262.66 L 479.83,262.29 L 481.04,261.53 L 482.46,260.45 L 483.19,259.78 L 484.74,258.72 L 485.11,258.50 L 485.76,258.19 L 486.52,258.00 L 487.09,258.00 L 488.79,257.48 L 489.68,257.16 L 491.53,256.26 L 492.40,255.80 L 493.73,254.87 L 493.99,254.65 L 494.31,254.28 L 494.40,253.84 L 494.26,253.61 L 494.36,253.25 L 495.01,253.00 L 495.28,253.00 L 496.11,252.82 L 496.57,252.70 L 497.65,252.32 L 498.77,251.91 L 501.25,250.77 L 502.45,250.18 L 504.34,249.06 L 504.74,248.80 L 505.24,248.37 L 505.45,247.91 L 505.37,247.79 L 505.46,247.53 L 505.54,247.39 L 505.89,247.11 L 507.71,246.39 L 508.60,246.17 L 510.56,245.48 L 511.55,245.10 L 513.46,244.20 L 514.38,243.73 L 515.93,242.78 L 517.50,241.46 L 517.64,241.29 L 518.18,240.88 L 518.49,240.68 L 519.29,240.24 L 522.19,239.05 L 523.20,238.73 L 525.47,237.70 L 526.01,237.43 L 527.00,236.87 L 528.19,236.07 L 528.51,235.82 L 529.50,235.19 L 530.04,234.86 L 531.36,234.13 L 535.74,232.01 L 536.46,231.70 L 537.73,231.07 L 538.32,230.76 L 539.27,230.17 L 539.70,229.88 L 540.23,229.40 L 540.43,228.88 L 540.28,228.64 L 540.37,228.26 L 541.01,228.00 L 541.28,228.00 L 542.10,227.82 L 542.55,227.70 L 543.63,227.32 L 544.76,226.91 L 547.24,225.77 L 548.44,225.19 L 550.35,224.07 L 550.74,223.82 L 551.25,223.39 L 551.46,222.94 L 551.40,222.84 L 551.57,222.59 L 551.69,222.46 L 552.17,222.16 L 552.71,221.85 L 554.39,221.19 L 555.28,220.87 L 557.20,220.36 L 559.68,220.01 L 559.76,220.01 L 560.45,220.50 L 560.88,220.82 L 562.21,221.91 L 562.95,222.52 L 564.85,224.14 L 565.86,225.01 L 568.24,227.09 L 569.49,228.18 L 572.29,230.66 L 573.73,231.94 L 576.87,234.76 L 578.47,236.20 L 581.87,239.27 L 587.18,244.12 L 588.97,245.76 L 592.29,248.81 L 593.91,250.29 L 596.91,253.03 L 598.36,254.37 L 601.06,256.83 L 602.37,258.03 L 604.79,260.25 L 605.97,261.33 L 608.14,263.31 L 609.20,264.28 L 611.15,266.06 L 613.06,267.80 L 616.32,270.78 L 617.88,272.20 L 620.63,274.68 L 621.95,275.88 L 624.38,278.07 L 631.56,284.50 L 632.49,285.32 L 634.59,287.22 L 635.67,288.20 L 637.87,290.21 L 638.96,291.20 L 641.00,293.09 L 643.59,295.50 L 644.32,296.19 L 646.01,297.71 L 646.87,298.48 L 648.67,300.02 L 649.56,300.78 L 651.26,302.16 L 653.44,303.87 L 654.70,304.79 L 656.66,306.60 L 657.07,307.02 L 657.64,307.71 L 658.00,308.45 L 658.00,308.62 L 658.41,309.18 L 658.67,309.50 L 659.51,310.28 L 659.98,310.70 L 661.14,311.60 L 663.14,312.99 L 664.55,313.91 L 667.22,316.13 L 667.82,316.67 L 668.81,317.69 L 669.81,318.99 L 670.23,319.72 L 671.67,321.32 L 674.00,323.19 L 674.74,323.61 L 675.88,324.70 L 676.13,324.98 L 676.46,325.51 L 676.67,326.20 L 676.67,326.36 L 676.49,326.63 L 676.36,326.76 L 675.87,326.99 L 675.57,327.10 L 674.67,327.29 L 674.17,327.38 L 672.78,327.54 L 672.02,327.62 L 670.06,327.76 L 669.00,327.83 L 666.39,327.96 L 664.99,328.02 L 661.64,328.15 L 655.67,328.35 L 654.71,328.38 L 652.48,328.43 L 651.32,328.46 L 648.72,328.51 L 647.37,328.54 L 644.42,328.59 L 642.90,328.61 L 639.64,328.65 L 637.97,328.68 L 634.41,328.71 L 632.60,328.73 L 628.78,328.77 L 624.91,328.80 L 616.51,328.86 L 612.23,328.89 L 603.18,328.93 L 598.60,328.94 L 589.14,328.97 L 579.62,328.99 L 560.35,328.98 L 555.59,328.97 L 546.32,328.95 L 541.74,328.94 L 532.99,328.90 L 528.71,328.88 L 520.73,328.83 L 518.80,328.81 L 515.11,328.78 L 513.30,328.77 L 509.89,328.73 L 508.22,328.72 L 505.12,328.68 L 503.60,328.66 L 500.83,328.62 L 499.49,328.60 L 497.07,328.55 L 495.91,328.53 L 493.89,328.48 L 492.94,328.46 L 491.34,328.41 L 490.59,328.38 L 489.44,328.33 L 488.93,328.30 L 488.26,328.24 L 487.83,328.15 L 487.80,328.07 L 487.39,327.93 L 487.12,327.85 L 486.29,327.71 L 485.82,327.64 L 484.63,327.50 L 483.99,327.43 L 482.50,327.31 L 480.95,327.18 L 477.24,326.96 L 475.32,326.86 L 471.24,326.71 L 469.20,326.64 L 465.26,326.57 L 463.36,326.54 L 460.06,326.56 L 459.30,326.57 L 457.99,326.62 L 457.37,326.64 L 456.39,326.72 L 455.95,326.76 L 455.36,326.86 L 455.00,327.06 L 455.00,327.32 L 454.60,327.72 L 453.64,328.00 L 453.40,328.00 L 452.99,328.36 L 452.80,328.61 L 452.47,329.49 L 452.32,330.00 L 452.06,331.44 L 451.75,334.25 L 451.58,336.23 L 450.81,340.17 L 450.35,342.13 L 449.03,345.94 L 448.31,347.82 L 446.49,351.41 L 443.24,356.40 L 442.21,357.74 L 440.34,360.20 L 439.92,360.75 L 439.26,361.62 L 438.62,362.46 L 438.58,362.51 L 438.80,363.00 L 438.96,363.31 L 439.56,364.33 L 439.91,364.91 L 440.90,366.45 L 441.45,367.29 L 442.83,369.35 L 443.56,370.45 L 445.33,373.05 L 446.26,374.41 L 448.41,377.53 L 449.53,379.15 L 452.07,382.79 L 453.38,384.68 L 456.31,388.85 L 457.82,391.00 L 461.12,395.69 L 462.83,398.10 L 466.52,403.32 L 468.42,405.99 L 472.50,411.73 L 474.59,414.66 L 479.05,420.93 L 481.33,424.12 L 486.18,430.91 L 488.66,434.37 L 493.89,441.68 L 496.56,445.40 L 502.18,453.23 L 511.05,465.57 L 516.09,472.57 L 525.84,486.13 L 528.24,489.47 L 532.93,495.99 L 535.26,499.22 L 539.77,505.49 L 542.01,508.59 L 546.32,514.58 L 548.45,517.54 L 552.53,523.21 L 554.54,526.00 L 558.37,531.32 L 560.25,533.93 L 563.80,538.85 L 565.53,541.26 L 568.78,545.76 L 570.35,547.95 L 573.26,551.98 L 574.67,553.93 L 577.22,557.46 L 578.45,559.16 L 580.61,562.15 L 581.64,563.58 L 583.39,566.00 L 584.21,567.13 L 585.52,568.94 L 586.12,569.77 L 586.97,570.93 L 587.69,571.91 L 588.14,572.51 L 588.96,573.64 L 589.34,574.19 L 589.95,575.11 L 590.22,575.54 L 590.56,576.16 L 590.71,576.63 L 590.69,576.64 L 590.40,576.76 L 590.21,576.84 L 589.58,577.10 L 589.22,577.24 L 588.27,577.62 L 587.75,577.83 L 586.48,578.32 L 585.82,578.59 L 584.26,579.19 L 583.45,579.51 L 581.63,580.22 L 579.74,580.96 L 575.22,582.71 L 572.86,583.63 L 567.49,585.70 L 564.71,586.77 L 558.64,589.12 L 555.53,590.32 L 548.89,592.87 L 538.45,596.89 L 534.87,598.26 L 527.98,600.91 L 524.58,602.21 L 518.14,604.69 L 514.99,605.89 L 509.16,608.14 L 506.33,609.22 L 501.25,611.17 L 498.81,612.11 L 494.63,613.72 L 493.65,614.09 L 491.88,614.78 L 491.03,615.10 L 489.53,615.68 L 488.82,615.95 L 487.62,616.41 L 487.06,616.63 L 486.17,616.97 L 485.76,617.13 L 485.21,617.35 L 484.76,617.52 L 484.22,617.73 L 483.36,617.66 L 482.98,617.54 M 407.78,348.45 L 409.60,347.69 L 412.69,345.62 L 414.14,344.50 L 416.48,341.85 L 417.56,340.46 L 419.13,337.38 L 419.82,335.80 L 420.59,332.47 L 420.87,330.78 L 420.81,327.35 L 420.67,325.64 L 419.76,322.29 L 419.19,320.63 L 417.39,317.51 L 413.67,313.28 L 412.23,312.02 L 409.07,310.22 L 407.46,309.44 L 404.10,308.58 L 402.41,308.27 L 399.00,308.29 L 397.30,308.41 L 394.00,309.27 L 392.38,309.80 L 389.36,311.44 L 387.89,312.36 L 385.30,314.72 L 384.07,315.99 L 382.07,319.04 L 379.92,324.31 L 379.61,325.46 L 379.35,327.82 L 379.28,329.01 L 379.51,331.44 L 379.68,332.67 L 380.38,335.16 L 381.98,338.95 L 382.55,340.08 L 383.73,341.90 L 384.35,342.76 L 385.77,344.18 L 386.53,344.86 L 388.42,346.09 L 392.02,347.92 L 393.37,348.53 L 396.05,349.33 L 397.39,349.66 L 400.04,349.89 L 401.36,349.93 L 403.96,349.59 L 405.25,349.35 M 31.41,415.22 L 31.21,413.94 L 30.47,411.49 L 30.27,410.93 L 29.84,410.01 L 29.20,409.06 L 28.88,408.74 L 28.45,407.59 L 28.36,407.23 L 28.22,406.27 L 28.16,405.74 L 28.08,404.38 L 28.05,403.65 L 28.03,401.80 L 28.03,400.81 L 28.06,398.38 L 28.08,397.09 L 28.16,394.00 L 28.32,388.53 L 28.42,385.65 L 28.63,380.36 L 28.74,377.78 L 29.00,372.99 L 29.13,370.64 L 29.44,366.20 L 29.61,364.01 L 29.99,359.80 L 30.39,355.61 L 31.46,347.34 L 31.75,345.24 L 32.42,340.88 L 33.56,334.00 L 34.73,327.23 L 37.62,313.86 L 39.15,307.20 L 42.76,294.09 L 44.66,287.56 L 48.97,274.72 L 51.22,268.34 L 56.22,255.80 L 58.81,249.57 L 64.48,237.36 L 67.40,231.30 L 73.73,219.43 L 76.98,213.54 L 83.95,202.05 L 87.51,196.35 L 95.10,185.25 L 98.98,179.75 L 107.17,169.07 L 111.35,163.78 L 120.13,153.54 L 124.60,148.48 L 133.95,138.71 L 138.70,133.88 L 148.62,124.60 L 153.64,120.02 L 164.10,111.25 L 169.39,106.93 L 180.36,98.70 L 185.91,94.65 L 197.40,86.98 L 215.17,76.12 L 216.63,75.28 L 219.41,73.75 L 220.76,73.02 L 223.09,71.80 L 224.18,71.25 L 225.81,70.49 L 226.16,70.34 L 226.68,70.14 L 227.17,70.01 L 227.21,70.01 L 227.45,70.23 L 227.59,70.37 L 228.00,70.85 L 228.23,71.12 L 228.81,71.85 L 229.12,72.24 L 229.86,73.20 L 230.64,74.21 L 232.60,76.85 L 233.64,78.27 L 236.07,81.60 L 237.33,83.34 L 240.12,87.23 L 241.55,89.23 L 244.61,93.53 L 247.71,97.90 L 254.28,107.28 L 257.56,111.98 L 263.91,121.15 L 265.44,123.38 L 268.33,127.60 L 269.73,129.66 L 272.29,133.44 L 273.52,135.26 L 275.65,138.46 L 276.65,139.97 L 278.25,142.45 L 278.62,143.01 L 279.23,143.99 L 279.51,144.45 L 279.95,145.19 L 280.15,145.53 L 280.42,146.03 L 280.60,146.47 L 280.62,146.62 L 280.86,147.30 L 281.00,147.70 L 281.44,148.78 L 281.69,149.37 L 282.29,150.75 L 282.60,151.47 L 283.32,153.03 L 284.04,154.63 L 285.62,157.92 L 286.00,158.71 L 286.74,160.19 L 287.75,162.13 L 287.79,162.21 L 287.60,162.54 L 287.46,162.72 L 286.94,163.19 L 284.52,164.86 L 283.61,165.39 L 282.37,166.23 L 281.81,166.64 L 281.08,167.53 L 280.76,168.02 L 280.28,169.35 L 279.56,172.25 L 279.39,173.02 L 278.69,174.21 L 278.50,174.45 L 278.07,174.79 L 277.42,175.00 L 277.00,175.00 L 276.52,175.29 L 276.50,176.00 L 276.67,176.28 L 276.32,176.71 L 275.01,177.00 L 274.73,177.00 L 274.06,177.20 L 273.71,177.34 L 272.95,177.76 L 272.17,178.22 L 270.63,179.52 L 269.90,180.19 L 268.87,181.52 L 268.67,181.84 L 268.46,182.38 L 268.51,183.01 L 268.67,183.28 L 268.50,183.88 L 268.34,184.18 L 267.60,184.80 L 267.16,185.11 L 265.96,185.68 L 263.75,186.38 L 262.99,186.56 L 261.81,187.19 L 261.56,187.35 L 261.22,187.69 L 261.00,188.20 L 261.00,188.38 L 260.68,189.01 L 260.46,189.37 L 259.63,190.44 L 259.15,191.03 L 257.72,192.63 L 256.93,193.50 L 254.82,195.71 L 254.24,196.31 L 252.95,197.64 L 252.28,198.32 L 250.78,199.84 L 250.01,200.62 L 248.30,202.33 L 247.42,203.21 L 245.48,205.14 L 244.49,206.12 L 242.32,208.27 L 241.20,209.37 L 238.78,211.75 L 237.54,212.97 L 234.87,215.59 L 230.55,219.82 L 229.10,221.24 L 226.45,223.93 L 225.19,225.24 L 223.10,227.51 L 222.62,228.04 L 221.81,228.98 L 221.43,229.42 L 220.83,230.17 L 220.56,230.51 L 220.22,231.03 L 220.00,231.52 L 220.00,231.90 L 219.49,232.78 L 218.27,233.87 L 218.03,234.00 L 217.29,234.54 L 216.88,234.86 L 215.82,235.73 L 215.26,236.20 L 213.93,237.35 L 213.25,237.96 L 211.71,239.34 L 210.13,240.77 L 206.54,244.12 L 204.71,245.84 L 200.91,249.48 L 199.02,251.31 L 195.41,254.87 L 193.67,256.60 L 190.65,259.69 L 189.95,260.42 L 188.73,261.71 L 188.15,262.33 L 187.21,263.38 L 186.78,263.86 L 186.17,264.61 L 185.70,265.34 L 185.50,265.85 L 184.67,266.79 L 183.18,267.66 L 182.93,267.73 L 182.25,268.13 L 181.88,268.37 L 181.04,269.05 L 178.44,271.74 L 177.63,272.73 L 175.80,274.74 L 175.37,275.21 L 174.57,276.02 L 173.60,276.92 L 173.02,277.40 L 171.93,278.37 L 171.37,278.88 L 170.08,280.15 L 169.38,280.86 L 167.54,282.78 L 167.03,283.32 L 165.86,284.57 L 163.81,286.76 L 163.17,287.45 L 161.96,288.68 L 161.37,289.26 L 160.38,290.19 L 159.91,290.60 L 159.23,291.13 L 158.70,291.37 L 158.64,291.31 L 158.31,291.50 L 158.12,291.64 L 157.56,292.18 L 157.27,292.48 L 156.57,293.29 L 155.43,294.72 L 154.53,295.90 L 153.07,297.74 L 152.40,298.57 L 151.37,299.69 L 150.92,300.17 L 150.35,300.57 L 150.00,300.35 L 150.00,300.26 L 149.84,300.27 L 149.74,300.31 L 149.33,300.63 L 149.09,300.83 L 148.38,301.49 L 147.99,301.88 L 146.94,302.94 L 146.36,303.53 L 144.92,305.04 L 144.15,305.86 L 142.26,307.87 L 141.26,308.94 L 138.90,311.50 L 134.75,315.99 L 134.10,316.70 L 132.91,318.06 L 132.34,318.72 L 131.40,319.89 L 130.96,320.44 L 130.37,321.29 L 130.00,322.04 L 130.00,322.29 L 129.61,322.52 L 128.66,322.42 L 128.47,322.35 L 127.90,322.49 L 127.59,322.60 L 126.83,323.03 L 126.04,323.53 L 124.27,325.08 L 123.40,325.90 L 121.99,327.62 L 121.69,328.03 L 121.27,328.77 L 121.00,329.68 L 121.00,330.13 L 120.48,331.27 L 120.16,331.86 L 119.21,333.02 L 118.72,333.57 L 117.64,334.42 L 116.21,335.00 L 115.79,335.00 L 114.85,335.40 L 114.38,335.66 L 113.49,336.41 L 113.06,336.82 L 112.43,337.71 L 112.00,339.00 L 112.00,339.40 L 111.62,340.25 L 111.37,340.67 L 110.58,341.50 L 110.14,341.91 L 109.05,342.62 L 107.19,343.44 L 106.58,343.63 L 105.77,344.18 L 105.48,344.97 L 105.62,345.19 L 105.40,345.72 L 104.49,346.36 L 104.08,346.52 L 103.43,347.15 L 102.98,348.22 L 102.98,348.39 L 102.74,348.91 L 102.58,349.19 L 102.09,349.86 L 99.95,352.00 L 99.59,352.30 L 98.39,353.35 L 97.72,353.94 L 96.04,355.46 L 95.15,356.26 L 93.16,358.08 L 92.14,359.01 L 90.02,360.95 L 88.96,361.93 L 86.89,363.85 L 85.88,364.79 L 84.03,366.52 L 83.16,367.34 L 81.72,368.71 L 80.21,370.19 L 80.03,370.37 L 79.44,370.97 L 79.11,371.31 L 78.30,372.14 L 75.52,375.00 L 74.58,375.96 L 72.82,377.77 L 72.42,378.17 L 71.76,378.84 L 71.10,379.50 L 70.96,379.64 L 70.21,380.41 L 69.77,380.86 L 68.54,382.14 L 67.88,382.82 L 66.32,384.44 L 63.80,387.07 L 62.93,387.98 L 61.21,389.68 L 60.37,390.50 L 58.82,391.91 L 58.09,392.56 L 56.90,393.53 L 55.70,394.31 L 55.21,394.49 L 54.14,395.61 L 52.92,397.79 L 52.65,398.56 L 51.36,400.29 L 48.97,402.36 L 48.15,402.84 L 46.87,403.81 L 46.60,404.04 L 46.23,404.43 L 46.00,404.85 L 46.00,404.95 L 45.45,405.70 L 45.10,406.16 L 43.96,407.47 L 43.33,408.19 L 41.75,409.90 L 39.05,412.74 L 32.10,419.88 L 31.41,415.22 M 346.04,100.07 L 345.75,99.53 L 345.30,98.31 L 344.99,96.82 L 344.99,96.45 L 344.61,95.15 L 343.69,93.00 L 343.51,92.66 L 343.06,91.63 L 342.82,91.08 L 342.30,89.77 L 340.78,85.50 L 340.68,85.17 L 340.39,84.11 L 340.23,83.52 L 339.84,81.97 L 339.64,81.14 L 339.17,79.18 L 338.93,78.16 L 338.40,75.87 L 337.85,73.51 L 336.64,68.10 L 336.02,65.33 L 334.77,59.56 L 334.14,56.69 L 332.97,51.15 L 332.69,49.81 L 332.17,47.27 L 331.91,46.03 L 331.45,43.76 L 331.23,42.66 L 330.85,40.73 L 330.68,39.81 L 330.39,38.29 L 330.27,37.59 L 330.10,36.56 L 330.00,35.64 L 330.00,35.43 L 330.32,35.02 L 330.53,34.82 L 331.32,34.42 L 331.78,34.22 L 333.10,33.82 L 333.83,33.63 L 335.74,33.22 L 336.77,33.02 L 339.31,32.59 L 340.67,32.37 L 343.91,31.92 L 345.62,31.68 L 349.61,31.19 L 356.50,30.38 L 358.73,30.12 L 363.88,29.70 L 366.54,29.50 L 372.25,29.17 L 375.14,29.03 L 381.02,28.82 L 383.94,28.73 L 389.57,28.63 L 392.33,28.60 L 397.33,28.62 L 398.52,28.64 L 400.71,28.69 L 401.77,28.72 L 403.67,28.80 L 404.58,28.85 L 406.13,28.97 L 406.86,29.03 L 408.01,29.18 L 408.53,29.26 L 409.24,29.44 L 409.74,29.75 L 409.80,29.92 L 410.16,30.24 L 410.37,30.39 L 410.97,30.64 L 413.33,31.02 L 414.20,31.02 L 416.01,31.31 L 418.00,32.00 L 418.31,32.20 L 418.65,32.60 L 418.77,32.81 L 418.67,33.30 L 418.56,33.57 L 417.97,34.29 L 416.50,35.73 L 415.67,36.50 L 413.57,38.10 L 413.05,38.48 L 412.05,39.15 L 410.75,39.92 L 409.99,40.31 L 408.81,41.26 L 408.56,41.49 L 408.22,41.93 L 408.00,42.49 L 408.00,42.62 L 407.86,42.97 L 407.76,43.16 L 407.39,43.66 L 407.17,43.93 L 406.54,44.61 L 406.19,44.97 L 405.27,45.87 L 404.76,46.35 L 403.50,47.49 L 402.83,48.10 L 401.20,49.53 L 400.34,50.29 L 398.31,52.04 L 394.76,55.06 L 393.74,55.93 L 392.27,57.54 L 391.98,57.90 L 391.63,58.48 L 391.53,59.04 L 391.67,59.27 L 391.29,59.81 L 390.01,60.50 L 389.46,60.67 L 388.59,61.17 L 388.00,61.89 L 388.00,61.99 L 387.77,62.44 L 387.62,62.70 L 387.13,63.39 L 385.04,65.96 L 384.22,66.87 L 382.86,68.49 L 382.57,68.85 L 382.13,69.41 L 381.79,69.92 L 381.75,70.01 L 381.42,70.36 L 381.22,70.55 L 380.63,71.05 L 378.25,72.85 L 377.36,73.48 L 375.95,74.73 L 375.66,75.02 L 375.26,75.51 L 375.00,76.04 L 375.00,76.21 L 374.43,77.09 L 374.07,77.59 L 372.91,78.97 L 372.28,79.70 L 370.75,81.39 L 369.95,82.25 L 368.22,84.05 L 367.35,84.94 L 365.63,86.64 L 364.79,87.46 L 363.28,88.86 L 362.56,89.51 L 361.44,90.41 L 360.42,91.00 L 360.25,91.00 L 359.57,91.43 L 359.19,91.71 L 358.17,92.62 L 357.63,93.11 L 356.40,94.36 L 354.46,96.50 L 353.82,97.24 L 352.70,98.47 L 352.16,99.05 L 351.22,99.97 L 350.77,100.40 L 349.98,101.02 L 349.61,101.30 L 348.95,101.64 L 348.63,101.77 L 348.07,101.83 L 347.81,101.83 L 347.32,101.62 L 346.86,101.36 Z" fill="rgba(243,243,243,1)"/>
</g>
</svg>